if (_typeface_js && _typeface_js.loadFace) _typeface_js.loadFace({"glyphs":{"¦":{"x_min":253,"x_max":444,"ha":694,"o":"m 444 277 l 444 -237 l 253 -237 l 253 277 l 444 277 m 444 971 l 444 457 l 253 457 l 253 971 l 444 971 "},"Ž":{"x_min":-58,"x_max":703,"ha":636,"o":"m -58 0 l -18 187 l 372 848 l 87 848 l 128 1044 l 689 1044 l 648 855 l 261 200 l 565 200 l 522 0 l -58 0 m 272 1325 l 358 1325 l 457 1226 l 604 1325 l 703 1325 l 529 1132 l 367 1132 l 272 1325 "},"Á":{"x_min":-98,"x_max":732,"ha":770,"o":"m 288 380 l 436 380 l 466 879 l 288 380 m -98 0 l 349 1044 l 644 1044 l 653 0 l 414 0 l 425 201 l 225 201 l 153 0 l -98 0 m 501 1132 l 415 1132 l 552 1325 l 732 1325 l 501 1132 "},"Î":{"x_min":-20,"x_max":552,"ha":429,"o":"m -20 0 l 201 1044 l 449 1044 l 226 0 l -20 0 m 552 1132 l 465 1132 l 365 1230 l 218 1132 l 120 1132 l 294 1325 l 455 1325 l 552 1132 "},"e":{"x_min":7,"x_max":647,"ha":707,"o":"m 590 267 q 486 47 563 116 q 269 -21 410 -21 q 74 36 142 -21 q 7 202 7 94 q 14 290 7 236 q 38 419 22 344 q 74 560 57 503 q 105 647 91 618 q 213 769 148 732 q 385 806 277 806 q 580 746 514 806 q 647 572 647 686 q 638 487 647 540 q 613 361 630 434 l 242 361 l 227 294 q 218 244 221 268 q 215 203 215 221 q 231 148 215 166 q 282 131 248 131 q 347 162 323 131 q 382 267 370 194 l 590 267 m 272 493 l 437 493 q 446 547 443 524 q 450 584 450 570 q 432 645 450 625 q 381 666 414 666 q 315 631 338 666 q 272 493 292 597 "},"»":{"x_min":0,"x_max":649,"ha":732,"o":"m 111 653 l 328 459 l 294 302 l 0 131 l 38 315 l 193 398 l 76 491 l 111 653 m 433 653 l 649 459 l 615 302 l 321 131 l 360 315 l 515 398 l 398 491 l 433 653 "},"∆":{"x_min":-4,"x_max":1023,"ha":1021,"o":"m 649 210 l 509 687 l 369 210 l 649 210 m 671 999 l 1023 0 l -4 0 l 347 999 l 671 999 "},"ò":{"x_min":0,"x_max":641,"ha":697,"o":"m 265 481 l 235 340 q 219 258 224 294 q 214 205 214 223 q 228 152 214 170 q 273 135 243 135 q 333 163 312 135 q 377 305 353 192 l 406 445 q 423 530 417 496 q 429 580 429 565 q 414 634 429 616 q 369 652 399 652 q 309 622 330 652 q 265 481 289 593 m 0 201 q 8 296 0 239 q 31 425 16 353 q 65 559 47 500 q 98 647 83 618 q 205 769 141 732 q 378 806 269 806 q 573 747 505 806 q 641 582 641 689 q 633 490 641 545 q 610 365 625 436 q 574 222 591 280 q 543 136 558 165 q 437 15 502 51 q 262 -21 372 -21 q 68 36 136 -21 q 0 201 0 94 m 543 868 l 450 868 l 205 1061 l 398 1061 l 543 868 "},"^":{"x_min":279,"x_max":1108,"ha":1389,"o":"m 808 991 l 1108 608 l 902 608 l 694 817 l 484 608 l 279 608 l 578 991 l 808 991 "},"«":{"x_min":25,"x_max":674,"ha":732,"o":"m 562 131 l 346 325 l 379 482 l 674 655 l 635 469 l 481 386 l 597 291 l 562 131 m 241 131 l 25 325 l 56 482 l 353 655 l 314 469 l 160 386 l 276 291 l 241 131 "},"∙":{"x_min":61,"x_max":313,"ha":374,"o":"m 61 517 q 97 606 61 570 q 185 642 133 642 q 276 606 239 642 q 313 517 313 570 q 275 426 313 463 q 185 389 238 389 q 97 425 133 389 q 61 517 61 462 "},"í":{"x_min":-31,"x_max":479,"ha":379,"o":"m -31 0 l 136 785 l 352 785 l 185 0 l -31 0 m 248 868 l 162 868 l 299 1061 l 479 1061 l 248 868 "},"ˆ":{"x_min":195,"x_max":627,"ha":694,"o":"m 627 868 l 540 868 l 440 966 l 293 868 l 195 868 l 369 1061 l 530 1061 l 627 868 "},"µ":{"x_min":-20,"x_max":900,"ha":930,"o":"m 408 737 l 351 320 q 349 297 349 305 q 348 284 348 289 q 369 216 348 238 q 434 194 391 194 q 518 229 488 194 q 559 338 549 264 l 616 737 l 900 737 l 792 0 l 543 0 l 555 88 q 499 19 531 42 q 427 -3 467 -3 q 356 18 386 -3 q 308 81 326 39 l 259 -286 l -20 -286 l 122 737 l 408 737 "},"č":{"x_min":0,"x_max":653,"ha":688,"o":"m 597 309 q 486 54 563 129 q 262 -21 410 -21 q 67 37 135 -21 q 0 202 0 95 q 7 290 0 236 q 31 419 15 344 q 67 560 50 503 q 98 647 84 618 q 205 769 141 732 q 378 806 270 806 q 572 747 504 806 q 640 580 640 688 q 638 537 640 559 q 632 496 636 516 l 422 496 q 429 546 427 528 q 432 578 432 563 q 415 632 432 613 q 368 652 398 652 q 309 623 330 652 q 264 481 289 594 l 234 340 q 217 253 223 289 q 212 202 212 217 q 226 152 212 170 q 269 135 241 135 q 337 171 313 135 q 381 309 362 207 l 597 309 m 222 1061 l 308 1061 l 407 962 l 554 1061 l 653 1061 l 479 868 l 317 868 l 222 1061 "},"’":{"x_min":102,"x_max":406,"ha":374,"o":"m 253 830 l 139 830 l 184 1044 l 406 1044 l 363 838 q 279 673 338 723 q 102 619 219 623 l 116 695 q 209 731 178 700 q 253 830 241 763 "},"-":{"x_min":7,"x_max":476,"ha":541,"o":"m 7 288 l 51 498 l 476 498 l 431 288 l 7 288 "},"Q":{"x_min":25,"x_max":778,"ha":806,"o":"m 343 659 l 285 385 q 267 292 273 329 q 261 237 261 256 q 280 185 261 205 q 331 166 299 166 q 403 202 378 166 q 460 385 428 238 l 518 658 q 536 751 530 714 q 543 806 543 787 q 523 858 543 838 q 470 878 503 878 q 399 843 424 878 q 343 659 375 808 m 457 -5 q 387 -19 422 -14 q 318 -25 353 -25 q 99 45 174 -25 q 25 250 25 115 q 30 317 25 275 q 47 427 35 360 q 104 698 75 588 q 165 879 133 809 q 287 1022 208 976 q 485 1069 365 1069 q 703 998 628 1069 q 778 792 778 927 q 758 625 778 739 q 705 371 739 512 q 659 212 680 268 q 610 112 638 156 l 735 -22 l 593 -151 l 457 -5 "},"M":{"x_min":-24,"x_max":1141,"ha":1120,"o":"m -24 0 l 198 1044 l 532 1044 l 528 445 l 540 445 q 578 550 561 505 q 612 633 596 595 l 788 1044 l 1141 1044 l 919 0 l 690 0 l 825 551 q 851 655 827 564 q 892 818 874 747 l 881 818 l 537 0 l 357 0 l 359 818 l 351 818 q 337 722 343 763 q 324 648 331 681 l 204 0 l -24 0 "},"œ":{"x_min":0,"x_max":1003,"ha":1055,"o":"m 627 493 l 791 493 q 802 553 799 533 q 806 584 806 573 q 788 645 806 625 q 737 666 771 666 q 671 631 694 666 q 627 493 648 597 m 265 480 l 235 340 q 219 258 224 294 q 214 205 214 223 q 228 152 214 170 q 273 135 243 135 q 332 163 312 135 q 376 306 352 192 l 405 445 q 422 530 416 496 q 428 580 428 565 q 413 634 428 616 q 368 652 398 652 q 309 622 329 652 q 265 480 289 593 m 447 46 q 361 -5 409 10 q 248 -21 313 -21 q 65 38 131 -21 q 0 202 0 97 q 7 291 0 238 q 31 419 15 344 q 65 556 48 498 q 98 647 82 615 q 204 768 140 731 q 370 806 268 806 q 480 790 435 806 q 556 742 526 774 q 644 790 598 774 q 750 806 691 806 q 936 744 870 806 q 1003 571 1003 683 q 994 486 1003 538 q 969 361 986 434 l 597 361 l 583 294 q 574 244 577 268 q 571 203 571 221 q 587 148 571 166 q 637 131 604 131 q 702 162 678 131 q 737 267 725 194 l 945 267 q 842 47 917 116 q 630 -21 767 -21 q 529 -4 573 -21 q 447 46 484 11 "},"{":{"x_min":98,"x_max":614,"ha":694,"o":"m 614 809 q 598 809 608 809 q 584 810 588 810 q 505 790 525 810 q 485 703 485 769 l 485 542 q 453 413 485 451 q 337 361 421 376 q 453 308 421 345 q 485 181 485 271 l 485 17 q 505 -67 485 -47 q 583 -88 525 -88 q 598 -87 588 -88 q 614 -87 608 -87 l 614 -280 l 559 -280 q 416 -272 465 -280 q 335 -249 366 -265 q 277 -192 294 -229 q 261 -65 261 -155 l 261 109 q 229 231 261 195 q 121 266 197 266 q 110 265 118 266 q 98 265 102 265 l 98 458 q 110 457 102 458 q 121 456 118 456 q 229 491 197 456 q 261 612 261 526 l 261 786 q 277 913 261 876 q 335 971 294 951 q 416 994 367 987 q 559 1002 466 1002 l 614 1002 l 614 809 "},"¼":{"x_min":86,"x_max":1153,"ha":1169,"o":"m 924 207 l 990 431 l 813 207 l 924 207 m 870 0 l 897 113 l 676 113 l 703 228 l 1003 578 l 1153 578 l 1063 207 l 1123 207 l 1099 113 l 1041 113 l 1014 0 l 870 0 m 816 1051 l 931 1051 l 352 -19 l 237 -19 l 816 1051 m 119 454 l 214 856 q 169 849 191 851 q 124 847 147 847 q 100 847 108 847 q 86 848 92 847 l 105 929 q 225 955 177 931 q 304 1032 273 980 l 404 1032 l 266 454 l 119 454 "},"#":{"x_min":-4,"x_max":1072,"ha":1068,"o":"m 641 565 l 479 565 l 426 421 l 588 421 l 641 565 m 636 997 l 548 748 l 702 748 l 789 997 l 985 997 l 898 748 l 1072 748 l 1004 565 l 833 565 l 781 421 l 956 421 l 888 238 l 716 238 l 627 -11 l 431 -11 l 520 238 l 366 238 l 278 -11 l 82 -11 l 170 238 l -4 238 l 63 421 l 235 421 l 286 565 l 111 565 l 177 748 l 352 748 l 440 997 l 636 997 "},"Ê":{"x_min":-24,"x_max":755,"ha":717,"o":"m -24 0 l 198 1044 l 755 1044 l 712 845 l 401 845 l 359 647 l 659 647 l 616 447 l 316 447 l 265 203 l 588 203 l 545 0 l -24 0 m 712 1132 l 625 1132 l 525 1230 l 378 1132 l 280 1132 l 454 1325 l 615 1325 l 712 1132 "},")":{"x_min":-104,"x_max":377,"ha":467,"o":"m 304 1044 q 359 824 341 934 q 377 602 377 714 q 300 155 377 373 q 73 -264 224 -63 l -104 -264 q 115 217 39 -36 q 191 724 191 471 q 180 873 191 793 q 149 1044 170 953 l 304 1044 "},"Å":{"x_min":-98,"x_max":653,"ha":770,"o":"m 435 1202 q 451 1163 435 1180 q 490 1147 468 1147 q 528 1162 512 1147 q 544 1202 544 1178 q 529 1239 544 1224 q 490 1255 514 1255 q 451 1239 467 1255 q 435 1202 435 1224 m 354 1201 q 393 1296 354 1256 q 490 1337 433 1337 q 585 1297 546 1337 q 625 1201 625 1257 q 585 1104 625 1144 q 490 1065 546 1065 q 393 1105 433 1065 q 354 1201 354 1145 m 288 380 l 436 380 l 467 879 l 288 380 m -98 0 l 343 1029 l 635 1029 l 653 0 l 415 0 l 425 201 l 225 201 l 153 0 l -98 0 "},"¸":{"x_min":54,"x_max":416,"ha":694,"o":"m 54 -292 l 87 -203 q 158 -226 123 -218 q 226 -234 194 -234 q 273 -221 256 -234 q 290 -185 290 -208 q 265 -152 290 -162 q 177 -142 240 -142 l 159 -142 l 207 0 l 283 0 l 262 -61 q 377 -89 338 -61 q 416 -174 416 -118 q 368 -285 416 -244 q 239 -326 321 -326 q 156 -317 202 -326 q 54 -292 110 -309 "},"a":{"x_min":-16,"x_max":644,"ha":715,"o":"m 393 381 q 313 341 365 360 q 244 310 261 321 q 211 271 223 298 q 200 210 200 245 q 216 155 200 174 q 266 137 233 137 q 330 167 307 137 q 370 281 353 198 l 393 381 m 342 64 q 259 1 306 23 q 159 -20 212 -20 q 30 31 76 -20 q -16 177 -16 83 q 29 348 -16 282 q 165 442 74 414 q 266 471 201 454 q 433 591 433 515 q 415 640 433 623 q 362 657 397 657 q 297 632 320 657 q 263 550 274 607 l 63 550 q 159 742 83 680 q 376 804 235 804 q 575 750 507 804 q 644 591 644 696 q 639 537 644 568 q 622 439 635 505 l 561 161 q 554 116 557 139 q 552 67 552 93 q 553 37 552 54 q 556 0 554 20 l 342 0 l 342 64 "},"=":{"x_min":172,"x_max":984,"ha":1157,"o":"m 984 347 l 984 163 l 172 163 l 172 347 l 984 347 m 984 666 l 984 482 l 172 482 l 172 666 l 984 666 "},"˚":{"x_min":294,"x_max":605,"ha":694,"o":"m 390 1019 q 407 978 390 995 q 450 961 425 961 q 492 978 475 961 q 509 1019 509 995 q 492 1061 509 1045 q 450 1078 475 1078 q 407 1061 424 1078 q 390 1019 390 1044 m 294 1020 q 339 1129 294 1084 q 449 1175 384 1175 q 559 1129 514 1175 q 605 1020 605 1084 q 559 909 605 955 q 449 864 514 864 q 339 909 384 864 q 294 1020 294 955 "},"ú":{"x_min":1,"x_max":691,"ha":715,"o":"m 345 76 q 254 5 299 27 q 160 -17 210 -17 q 42 25 84 -17 q 1 143 1 67 q 5 195 1 165 q 20 278 9 225 l 128 785 l 345 785 l 228 236 q 224 212 225 224 q 223 189 223 201 q 234 153 223 165 q 272 142 246 142 q 329 174 308 142 q 368 293 351 207 l 472 785 l 691 785 l 524 0 l 328 0 l 345 76 m 413 868 l 327 868 l 464 1061 l 644 1061 l 413 868 "},"¯":{"x_min":225,"x_max":653,"ha":694,"o":"m 225 909 l 248 1019 l 653 1019 l 629 909 l 225 909 "},"Z":{"x_min":-58,"x_max":689,"ha":636,"o":"m -58 0 l -18 187 l 372 848 l 87 848 l 128 1044 l 689 1044 l 648 855 l 261 200 l 565 200 l 522 0 l -58 0 "},"u":{"x_min":1,"x_max":691,"ha":715,"o":"m 345 76 q 254 5 299 27 q 160 -17 210 -17 q 42 25 84 -17 q 1 143 1 67 q 5 195 1 165 q 20 278 9 225 l 128 785 l 345 785 l 228 236 q 224 212 225 224 q 223 189 223 201 q 234 153 223 165 q 272 142 246 142 q 329 174 308 142 q 368 293 351 207 l 472 785 l 691 785 l 524 0 l 328 0 l 345 76 "},"k":{"x_min":-31,"x_max":758,"ha":699,"o":"m -31 0 l 190 1044 l 408 1044 l 296 523 l 511 785 l 758 785 l 459 451 l 574 0 l 359 0 l 302 331 l 233 250 l 185 0 l -31 0 "},"Ù":{"x_min":35,"x_max":853,"ha":827,"o":"m 194 1044 l 438 1044 l 295 365 q 277 276 283 309 q 272 227 272 243 q 289 179 272 196 q 339 162 307 162 q 463 363 420 162 l 466 379 l 608 1044 l 853 1044 l 707 357 q 658 171 679 228 q 610 80 637 113 q 502 0 564 26 q 357 -25 441 -25 q 115 37 195 -25 q 35 226 35 99 q 43 315 35 258 q 70 460 52 373 l 194 1044 m 673 1132 l 580 1132 l 335 1325 l 528 1325 l 673 1132 "},"¢":{"x_min":29,"x_max":669,"ha":745,"o":"m 624 329 q 524 85 593 163 q 334 0 455 6 l 289 -206 l 149 -206 l 195 9 q 70 84 112 30 q 29 222 29 137 q 36 308 29 256 q 59 437 43 359 q 94 579 77 521 q 125 667 111 637 q 219 781 163 745 q 368 825 275 817 l 406 999 l 546 999 l 506 813 q 627 737 585 791 q 669 602 669 683 q 666 565 669 587 q 660 515 664 544 l 450 515 q 456 559 454 539 q 459 596 459 579 q 442 651 459 632 q 396 670 426 670 q 337 640 358 670 q 292 500 316 611 l 263 360 q 246 273 252 309 q 241 223 241 237 q 255 172 241 190 q 297 155 270 155 q 366 191 341 155 q 410 329 390 227 l 624 329 "},"Ş":{"x_min":-10,"x_max":711,"ha":724,"o":"m -7 366 l 215 366 q 215 361 215 363 q 213 313 213 326 q 237 199 213 235 q 313 163 261 163 q 377 191 353 163 q 402 268 402 219 q 290 442 402 346 q 244 483 261 468 q 131 624 167 555 q 96 772 96 693 q 179 993 96 916 q 420 1071 263 1071 q 637 998 563 1071 q 711 785 711 926 q 710 747 711 761 q 707 723 709 734 l 498 723 l 498 741 q 477 857 498 822 q 407 893 456 893 q 348 868 369 893 q 327 802 327 844 q 349 724 327 760 q 444 624 371 688 l 453 617 q 634 298 634 458 q 549 58 634 140 q 300 -24 465 -24 q 67 58 145 -24 q -10 306 -10 141 q -7 361 -10 324 l -7 366 m 54 -292 l 87 -203 q 158 -226 123 -218 q 226 -234 194 -234 q 273 -221 256 -234 q 290 -185 290 -208 q 265 -152 290 -162 q 177 -142 240 -142 l 159 -142 l 207 0 l 283 0 l 262 -61 q 377 -89 338 -61 q 416 -174 416 -118 q 368 -285 416 -244 q 239 -326 321 -326 q 156 -317 202 -326 q 54 -292 110 -309 "},"é":{"x_min":7,"x_max":647,"ha":707,"o":"m 590 267 q 486 47 563 116 q 269 -21 410 -21 q 74 36 142 -21 q 7 202 7 94 q 14 290 7 236 q 38 419 22 344 q 74 560 57 503 q 105 647 91 618 q 213 769 148 732 q 385 806 277 806 q 580 746 514 806 q 647 572 647 686 q 638 487 647 540 q 613 361 630 434 l 242 361 l 227 294 q 218 244 221 268 q 215 203 215 221 q 231 148 215 166 q 282 131 248 131 q 347 162 323 131 q 382 267 370 194 l 590 267 m 272 493 l 437 493 q 446 547 443 524 q 450 584 450 570 q 432 645 450 625 q 381 666 414 666 q 315 631 338 666 q 272 493 292 597 m 391 868 l 305 868 l 442 1061 l 622 1061 l 391 868 "},"B":{"x_min":-24,"x_max":779,"ha":811,"o":"m 255 178 l 317 178 q 427 224 388 178 q 466 356 466 271 q 441 431 466 404 q 374 459 417 459 l 314 459 l 255 178 m -24 0 l 198 1044 l 418 1044 q 699 994 619 1044 q 779 824 779 944 q 731 634 779 709 q 589 527 683 559 q 677 456 649 502 q 706 342 706 410 q 616 84 706 168 q 341 0 526 0 l -24 0 m 350 624 l 406 624 q 507 666 471 624 q 544 786 544 709 q 521 855 544 831 q 459 879 499 879 l 405 879 l 350 624 "},"…":{"x_min":-4,"x_max":1215,"ha":1389,"o":"m -4 0 l 46 237 l 289 237 l 239 0 l -4 0 m 458 0 l 508 237 l 751 237 l 701 0 l 458 0 m 922 0 l 972 237 l 1215 237 l 1165 0 l 922 0 "},"H":{"x_min":-24,"x_max":856,"ha":833,"o":"m -24 0 l 198 1044 l 442 1044 l 359 649 l 526 649 l 611 1044 l 856 1044 l 633 0 l 388 0 l 483 442 l 316 442 l 222 0 l -24 0 "},"î":{"x_min":-31,"x_max":472,"ha":379,"o":"m -31 0 l 136 785 l 352 785 l 185 0 l -31 0 m 472 868 l 385 868 l 285 966 l 138 868 l 40 868 l 214 1061 l 375 1061 l 472 868 "},"−":{"x_min":172,"x_max":984,"ha":1157,"o":"m 984 509 l 984 321 l 172 321 l 172 509 l 984 509 "},"≠":{"x_min":172,"x_max":984,"ha":1157,"o":"m 938 756 l 862 662 l 984 662 l 984 486 l 741 486 l 624 343 l 984 343 l 984 165 l 506 165 l 342 -37 l 208 70 l 284 165 l 172 165 l 172 343 l 402 343 l 517 486 l 172 486 l 172 662 l 639 662 l 805 866 l 938 756 "},"¥":{"x_min":0,"x_max":817,"ha":745,"o":"m 149 0 l 236 408 l 0 408 l 26 529 l 209 529 l 187 625 l 40 625 l 66 746 l 164 746 l 99 1029 l 340 1029 l 401 663 l 550 1029 l 817 1029 l 664 746 l 766 746 l 742 625 l 600 625 l 546 529 l 721 529 l 696 408 l 479 408 l 392 0 l 149 0 "},"U":{"x_min":35,"x_max":853,"ha":827,"o":"m 194 1044 l 438 1044 l 295 365 q 277 276 283 309 q 272 227 272 243 q 289 179 272 196 q 339 162 307 162 q 463 363 420 162 l 466 379 l 608 1044 l 853 1044 l 707 357 q 658 171 679 228 q 610 80 637 113 q 502 0 564 26 q 357 -25 441 -25 q 115 37 195 -25 q 35 226 35 99 q 43 315 35 258 q 70 460 52 373 l 194 1044 "},"Ñ":{"x_min":-22,"x_max":863,"ha":839,"o":"m -22 0 l 198 1044 l 447 1044 l 493 691 q 501 608 495 675 q 518 425 508 541 l 523 425 q 549 615 538 534 q 563 717 560 695 l 632 1044 l 863 1044 l 640 0 l 393 0 l 350 353 q 333 504 340 433 q 322 638 327 575 l 312 638 q 288 425 296 486 q 273 328 280 364 l 206 0 l -22 0 m 439 1142 l 356 1142 q 413 1259 375 1218 q 503 1301 451 1301 q 538 1298 520 1301 q 575 1289 556 1295 l 614 1276 q 634 1271 623 1273 q 657 1270 644 1270 q 693 1280 679 1270 q 714 1315 707 1291 l 799 1315 q 738 1199 775 1235 q 642 1163 701 1163 q 612 1164 626 1163 q 589 1169 599 1166 l 548 1182 q 521 1191 533 1188 q 502 1194 509 1194 q 463 1181 478 1194 q 439 1142 447 1168 "},"F":{"x_min":-24,"x_max":762,"ha":708,"o":"m -24 0 l 198 1044 l 762 1044 l 719 841 l 401 841 l 359 647 l 666 647 l 623 444 l 316 444 l 222 0 l -24 0 "},"*":{"x_min":106,"x_max":692,"ha":694,"o":"m 399 649 l 281 482 l 164 562 l 294 726 l 106 779 l 150 917 l 331 851 l 331 1044 l 467 1044 l 467 851 l 646 915 l 692 776 l 502 726 l 631 563 l 515 479 l 399 649 "},"†":{"x_min":52,"x_max":692,"ha":694,"o":"m 81 -239 l 249 552 l 52 552 l 86 720 l 283 720 l 353 1044 l 563 1044 l 494 720 l 692 720 l 656 552 l 458 552 l 290 -239 l 81 -239 "},"∕":{"x_min":-232,"x_max":462,"ha":232,"o":"m 346 1051 l 462 1051 l -116 -19 l -232 -19 l 346 1051 "},"°":{"x_min":10,"x_max":447,"ha":457,"o":"m 332 781 q 301 853 332 823 q 227 884 270 884 q 155 853 185 884 q 125 781 125 823 q 155 707 125 737 q 228 677 185 677 q 301 708 271 677 q 332 781 332 739 m 229 999 q 383 935 320 999 q 447 779 447 871 q 382 626 447 690 q 228 562 318 562 q 73 625 137 562 q 10 779 10 688 q 74 934 10 870 q 229 999 139 999 "},"å":{"x_min":-16,"x_max":644,"ha":715,"o":"m 360 978 q 376 940 360 956 q 414 925 392 925 q 452 940 437 925 q 468 978 468 955 q 452 1017 468 1001 q 414 1033 437 1033 q 376 1016 392 1033 q 360 978 360 1000 m 278 977 q 318 1074 278 1033 q 413 1115 358 1115 q 509 1074 469 1115 q 550 977 550 1033 q 510 882 550 921 q 413 843 470 843 q 317 882 357 843 q 278 977 278 921 m 393 381 q 313 341 365 360 q 244 310 261 321 q 211 271 223 298 q 200 210 200 245 q 217 155 200 174 q 266 137 234 137 q 330 167 307 137 q 371 281 353 198 l 393 381 m 343 64 q 259 1 306 23 q 160 -20 213 -20 q 30 31 76 -20 q -16 177 -16 83 q 29 348 -16 282 q 165 442 74 414 q 266 471 201 454 q 433 591 433 515 q 415 640 433 623 q 362 657 397 657 q 297 632 320 657 q 263 550 274 607 l 63 550 q 159 742 83 680 q 376 804 235 804 q 575 750 507 804 q 644 591 644 696 q 639 537 644 568 q 622 439 635 505 l 562 161 q 555 116 557 139 q 552 67 552 93 q 553 37 552 54 q 556 0 554 20 l 343 0 l 343 64 "},"0":{"x_min":11,"x_max":733,"ha":745,"o":"m 336 718 l 254 336 q 242 272 246 298 q 238 232 238 247 q 253 180 238 198 q 300 163 269 163 q 365 189 344 163 q 408 318 386 215 l 490 701 q 500 760 497 735 q 504 807 504 786 q 486 856 504 838 q 437 875 468 875 q 378 845 399 875 q 336 718 357 816 m 11 215 q 17 299 11 249 q 44 461 24 350 q 91 677 66 578 q 139 844 115 776 q 251 1000 175 951 q 454 1050 327 1050 q 659 987 585 1050 q 733 814 733 924 q 727 735 733 780 q 709 628 721 689 q 652 357 678 467 q 606 190 626 247 q 494 31 568 81 q 290 -18 419 -18 q 85 44 160 -18 q 11 215 11 107 "},"":{"x_min":77,"x_max":1021,"ha":1097,"o":"m 567 824 q 566 834 566 828 q 565 849 565 839 q 630 1005 565 934 q 790 1094 694 1077 q 791 1079 791 1087 q 791 1052 791 1070 q 721 893 791 963 q 583 823 651 823 l 578 823 q 573 824 576 823 q 567 824 570 824 m 1021 273 q 881 40 943 105 q 743 -24 820 -24 q 654 -1 709 -24 q 571 20 599 20 q 482 -1 540 20 q 396 -24 424 -24 q 309 5 353 -24 q 221 95 265 35 q 114 295 152 190 q 77 499 77 401 q 161 741 77 648 q 380 835 246 835 q 485 811 426 835 q 569 788 544 788 q 652 811 592 788 q 755 835 711 835 q 890 808 830 835 q 999 725 950 781 q 896 626 929 681 q 863 502 863 571 q 903 366 863 425 q 1021 273 944 307 "},"”":{"x_min":102,"x_max":722,"ha":688,"o":"m 569 830 l 455 830 l 500 1044 l 722 1044 l 678 838 q 594 673 654 723 q 417 619 535 623 l 432 695 q 526 731 494 700 q 569 830 557 763 m 253 830 l 139 830 l 184 1044 l 406 1044 l 363 838 q 279 673 338 723 q 102 619 219 623 l 116 695 q 209 731 178 700 q 253 830 241 763 "},"ö":{"x_min":0,"x_max":652,"ha":697,"o":"m 265 481 l 235 340 q 219 258 224 294 q 214 205 214 223 q 228 152 214 170 q 273 135 243 135 q 333 163 312 135 q 377 305 353 192 l 406 445 q 423 530 417 496 q 429 580 429 565 q 414 634 429 616 q 369 652 399 652 q 309 622 330 652 q 265 481 289 593 m 0 201 q 8 296 0 239 q 31 425 16 353 q 65 559 47 500 q 98 647 83 618 q 205 769 141 732 q 378 806 269 806 q 573 747 505 806 q 641 582 641 689 q 633 490 641 545 q 610 365 625 436 q 574 222 591 280 q 543 136 558 165 q 437 15 502 51 q 262 -21 372 -21 q 68 36 136 -21 q 0 201 0 94 m 451 875 l 488 1053 l 652 1053 l 614 875 l 451 875 m 211 875 l 248 1053 l 412 1053 l 374 875 l 211 875 "},"Õ":{"x_min":26,"x_max":779,"ha":806,"o":"m 344 659 l 286 385 q 267 292 273 329 q 261 237 261 256 q 280 185 261 205 q 331 166 299 166 q 404 202 378 166 q 460 385 429 238 l 518 658 q 537 751 531 714 q 544 806 544 787 q 524 858 544 838 q 471 878 504 878 q 400 843 424 878 q 344 659 375 808 m 26 245 q 31 323 26 276 q 47 427 36 370 q 104 702 76 598 q 170 890 132 807 q 290 1024 211 979 q 485 1069 369 1069 q 703 998 628 1069 q 779 793 779 928 q 773 721 779 766 q 757 616 768 676 q 700 348 730 460 q 638 164 671 236 q 516 21 595 67 q 319 -25 438 -25 q 101 44 176 -25 q 26 245 26 114 m 418 1142 l 335 1142 q 392 1259 354 1218 q 482 1301 430 1301 q 517 1298 499 1301 q 554 1289 535 1295 l 593 1276 q 613 1271 602 1273 q 636 1270 623 1270 q 672 1280 658 1270 q 693 1315 686 1291 l 778 1315 q 717 1199 754 1235 q 621 1163 680 1163 q 591 1164 605 1163 q 568 1169 578 1166 l 527 1182 q 500 1191 512 1188 q 481 1194 488 1194 q 442 1181 457 1194 q 418 1142 426 1168 "},"ć":{"x_min":0,"x_max":640,"ha":688,"o":"m 597 309 q 486 54 563 129 q 262 -21 410 -21 q 67 37 135 -21 q 0 202 0 95 q 7 290 0 236 q 31 419 15 344 q 67 560 50 503 q 98 647 84 618 q 205 769 141 732 q 378 806 270 806 q 572 747 504 806 q 640 580 640 688 q 638 537 640 559 q 632 496 636 516 l 422 496 q 429 546 427 528 q 432 578 432 563 q 415 632 432 613 q 368 652 398 652 q 309 623 330 652 q 264 481 289 594 l 234 340 q 217 253 223 289 q 212 202 212 217 q 226 152 212 170 q 269 135 241 135 q 337 171 313 135 q 381 309 362 207 l 597 309 m 382 868 l 296 868 l 433 1061 l 613 1061 l 382 868 "},"þ":{"x_min":-86,"x_max":665,"ha":724,"o":"m -86 -264 l 187 1044 l 405 1044 l 333 710 q 405 783 368 761 q 497 806 443 806 q 624 762 584 806 q 665 625 665 719 q 645 446 665 555 q 589 215 625 336 q 501 32 551 86 q 368 -21 450 -21 q 266 10 305 -21 q 206 111 227 42 l 127 -264 l -86 -264 m 290 488 l 259 343 q 249 282 253 309 q 245 235 245 254 q 260 182 245 200 q 304 164 276 164 q 356 197 336 164 q 401 336 377 231 l 430 467 q 442 531 438 502 q 447 583 447 561 q 432 635 447 617 q 387 653 417 653 q 331 618 352 653 q 290 488 309 584 "},"]":{"x_min":-109,"x_max":484,"ha":467,"o":"m -109 -264 l -79 -129 l 37 -129 l 257 909 l 141 909 l 169 1044 l 484 1044 l 206 -264 l -109 -264 "},"8":{"x_min":12,"x_max":718,"ha":745,"o":"m 347 470 q 268 410 298 470 q 239 254 239 351 q 255 179 239 203 q 310 156 272 156 q 389 217 360 156 q 419 382 419 278 q 400 447 419 424 q 347 470 381 470 m 434 888 q 362 841 390 888 q 335 720 335 794 q 350 655 335 676 q 398 634 366 634 q 473 679 445 634 q 502 802 502 725 q 485 866 502 845 q 434 888 468 888 m 194 566 q 143 644 160 600 q 126 744 126 688 q 208 968 126 886 q 431 1051 290 1051 q 644 983 571 1051 q 718 786 718 915 q 677 625 718 691 q 557 522 637 559 q 619 444 599 489 q 639 336 639 398 q 551 77 639 172 q 311 -18 463 -18 q 89 56 167 -18 q 12 269 12 131 q 59 465 12 388 q 194 566 106 542 "},"R":{"x_min":-24,"x_max":790,"ha":819,"o":"m 350 614 l 402 614 q 507 655 470 614 q 544 774 544 697 q 521 842 544 818 q 457 866 499 866 l 403 866 l 350 614 m -24 0 l 198 1044 l 430 1044 q 614 1030 554 1044 q 712 984 674 1016 q 770 904 751 951 q 790 795 790 857 q 740 601 790 673 q 590 504 690 528 q 674 458 647 490 q 700 371 700 425 q 681 239 700 330 q 662 98 662 147 q 666 54 662 73 q 678 20 670 35 l 678 0 l 423 0 q 414 27 417 12 q 411 63 411 43 q 433 212 411 113 q 455 354 455 310 q 432 409 455 389 q 371 430 409 430 l 310 430 l 220 0 l -24 0 "},"o":{"x_min":0,"x_max":641,"ha":697,"o":"m 265 481 l 235 340 q 219 258 224 294 q 214 205 214 223 q 228 152 214 170 q 273 135 243 135 q 333 163 312 135 q 377 305 353 192 l 406 445 q 423 530 417 496 q 429 580 429 565 q 414 634 429 616 q 369 652 399 652 q 309 622 330 652 q 265 481 289 593 m 0 201 q 8 296 0 239 q 31 425 16 353 q 65 559 47 500 q 98 647 83 618 q 205 769 141 732 q 378 806 269 806 q 573 747 505 806 q 641 582 641 689 q 633 490 641 545 q 610 365 625 436 q 574 222 591 280 q 543 136 558 165 q 437 15 502 51 q 262 -21 372 -21 q 68 36 136 -21 q 0 201 0 94 "},"5":{"x_min":16,"x_max":718.390625,"ha":745,"o":"m 22 331 l 236 331 q 233 298 234 314 q 232 269 232 282 q 248 189 232 214 q 299 164 265 164 q 386 241 351 164 q 421 437 421 318 q 402 523 421 495 q 347 552 384 552 q 302 535 323 552 q 265 486 282 518 l 57 486 l 213 1032 l 718 1032 l 677 845 l 353 845 l 304 671 q 364 695 333 687 q 430 703 396 703 q 596 631 536 703 q 656 432 656 559 q 562 101 656 219 q 300 -17 468 -17 q 90 54 165 -17 q 16 255 16 126 q 17 286 16 268 q 22 331 18 304 "},"õ":{"x_min":0,"x_max":654,"ha":697,"o":"m 265 481 l 235 340 q 219 258 224 294 q 214 205 214 223 q 228 152 214 170 q 273 135 243 135 q 333 163 312 135 q 377 305 353 192 l 406 445 q 423 530 417 496 q 429 580 429 565 q 414 634 429 616 q 369 652 399 652 q 309 622 330 652 q 265 481 289 593 m 0 201 q 8 296 0 239 q 31 425 16 353 q 65 559 47 500 q 98 647 83 618 q 205 769 141 732 q 378 806 269 806 q 573 747 505 806 q 641 582 641 689 q 633 490 641 545 q 610 365 625 436 q 574 222 591 280 q 543 136 558 165 q 437 15 502 51 q 262 -21 372 -21 q 68 36 136 -21 q 0 201 0 94 m 294 878 l 211 878 q 268 995 230 954 q 358 1037 306 1037 q 393 1034 375 1037 q 430 1025 411 1031 l 469 1012 q 489 1007 478 1009 q 512 1006 499 1006 q 548 1016 534 1006 q 569 1051 562 1027 l 654 1051 q 593 935 630 971 q 497 899 556 899 q 467 900 481 899 q 444 905 454 902 l 403 918 q 376 927 388 924 q 357 930 364 930 q 318 917 333 930 q 294 878 302 904 "},",":{"x_min":-84.9375,"x_max":245,"ha":374,"o":"m -49 0 l 2 241 l 245 241 l 202 38 q 106 -159 171 -101 q -82 -217 41 -217 l -84 -217 l -67 -134 q 29 -101 -4 -134 q 74 0 64 -69 l -49 0 "},"d":{"x_min":0,"x_max":751,"ha":724,"o":"m 374 294 l 405 441 q 415 502 411 475 q 418 549 418 530 q 403 602 418 584 q 360 621 388 621 q 309 590 328 621 q 264 449 289 559 l 234 315 q 222 250 226 280 q 218 200 218 220 q 232 148 218 166 q 277 131 247 131 q 333 164 312 131 q 374 294 354 198 m 751 1044 l 528 0 l 336 0 l 350 75 q 266 2 312 26 q 161 -21 219 -21 q 39 23 79 -21 q 0 160 0 67 q 19 339 0 231 q 73 566 38 447 q 162 749 111 696 q 298 803 214 803 q 401 770 361 803 q 455 673 440 738 l 534 1044 l 751 1044 "},"\"":{"x_min":46,"x_max":467,"ha":514,"o":"m 467 977 l 467 595 l 292 595 l 292 977 l 467 977 m 221 977 l 221 595 l 46 595 l 46 977 l 221 977 "},"˙":{"x_min":334,"x_max":545,"ha":694,"o":"m 334 875 l 374 1059 l 545 1059 l 505 875 l 334 875 "},"ê":{"x_min":7,"x_max":647,"ha":707,"o":"m 590 267 q 486 47 563 116 q 269 -21 410 -21 q 74 36 142 -21 q 7 202 7 94 q 14 290 7 236 q 38 419 22 344 q 74 560 57 503 q 105 647 91 618 q 213 769 148 732 q 385 806 277 806 q 580 746 514 806 q 647 572 647 686 q 638 487 647 540 q 613 361 630 434 l 242 361 l 227 294 q 218 244 221 268 q 215 203 215 221 q 231 148 215 166 q 282 131 248 131 q 347 162 323 131 q 382 267 370 194 l 590 267 m 272 493 l 437 493 q 446 547 443 524 q 450 584 450 570 q 432 645 450 625 q 381 666 414 666 q 315 631 338 666 q 272 493 292 597 m 615 868 l 528 868 l 428 966 l 281 868 l 183 868 l 357 1061 l 518 1061 l 615 868 "},"„":{"x_min":-65,"x_max":555,"ha":688,"o":"m 401 26 l 288 26 l 333 240 l 555 240 l 510 34 q 427 -131 486 -81 q 250 -185 367 -180 l 264 -109 q 357 -72 325 -103 q 401 26 389 -41 m 86 26 l -26 26 l 18 240 l 240 240 l 195 34 q 112 -131 171 -81 q -65 -185 52 -180 l -48 -109 q 43 -72 12 -103 q 86 26 74 -41 "},"Â":{"x_min":-98,"x_max":725,"ha":770,"o":"m 288 380 l 436 380 l 466 879 l 288 380 m -98 0 l 349 1044 l 644 1044 l 653 0 l 414 0 l 425 201 l 225 201 l 153 0 l -98 0 m 725 1132 l 638 1132 l 538 1230 l 391 1132 l 293 1132 l 467 1325 l 628 1325 l 725 1132 "},"Í":{"x_min":-20,"x_max":559,"ha":429,"o":"m -20 0 l 201 1044 l 449 1044 l 226 0 l -20 0 m 328 1132 l 242 1132 l 379 1325 l 559 1325 l 328 1132 "},"´":{"x_min":317,"x_max":634,"ha":694,"o":"m 403 868 l 317 868 l 454 1061 l 634 1061 l 403 868 "},"Ú":{"x_min":35,"x_max":853,"ha":827,"o":"m 194 1044 l 438 1044 l 295 365 q 277 276 283 309 q 272 227 272 243 q 289 179 272 196 q 339 162 307 162 q 463 363 420 162 l 466 379 l 608 1044 l 853 1044 l 707 357 q 658 171 679 228 q 610 80 637 113 q 502 0 564 26 q 357 -25 441 -25 q 115 37 195 -25 q 35 226 35 99 q 43 315 35 258 q 70 460 52 373 l 194 1044 m 526 1132 l 440 1132 l 577 1325 l 757 1325 l 526 1132 "},"Ý":{"x_min":72,"x_max":800,"ha":699,"o":"m 122 0 l 225 487 l 72 1044 l 315 1044 l 377 736 l 527 1044 l 800 1044 l 465 463 l 366 0 l 122 0 m 463 1132 l 377 1132 l 514 1325 l 694 1325 l 463 1132 "},"Ω":{"x_min":24,"x_max":1134,"ha":1157,"o":"m 1134 237 l 1134 0 l 685 0 l 685 272 q 753 392 730 327 q 777 530 777 457 q 722 708 777 642 q 578 775 668 775 q 434 708 488 775 q 381 530 381 642 q 404 392 381 457 q 473 272 427 327 l 473 0 l 24 0 l 24 237 l 275 237 q 129 379 178 292 q 81 583 81 465 q 217 902 81 780 q 578 1025 354 1025 q 939 902 802 1025 q 1077 583 1077 779 q 1028 379 1077 465 q 882 237 979 292 l 1134 237 "},"Ö":{"x_min":26,"x_max":779,"ha":806,"o":"m 344 659 l 286 385 q 267 292 273 329 q 261 237 261 256 q 280 185 261 205 q 331 166 299 166 q 404 202 378 166 q 460 385 429 238 l 518 658 q 537 751 531 714 q 544 806 544 787 q 524 858 544 838 q 471 878 504 878 q 400 843 424 878 q 344 659 375 808 m 26 245 q 31 323 26 276 q 47 427 36 370 q 104 702 76 598 q 170 890 132 807 q 290 1024 211 979 q 485 1069 369 1069 q 703 998 628 1069 q 779 793 779 928 q 773 721 779 766 q 757 616 768 676 q 700 348 730 460 q 638 164 671 236 q 516 21 595 67 q 319 -25 438 -25 q 101 44 176 -25 q 26 245 26 114 m 575 1139 l 612 1317 l 776 1317 l 738 1139 l 575 1139 m 335 1139 l 372 1317 l 536 1317 l 498 1139 l 335 1139 "},"z":{"x_min":-66,"x_max":577,"ha":578,"o":"m -66 0 l -30 170 l 293 623 l 57 623 l 91 785 l 577 785 l 541 615 l 222 170 l 476 170 l 440 0 l -66 0 "},"™":{"x_min":111,"x_max":1014,"ha":1157,"o":"m 707 996 l 774 815 l 840 996 l 1014 996 l 1014 617 l 891 617 l 891 866 l 798 617 l 751 617 l 658 866 l 658 617 l 534 617 l 534 996 l 707 996 m 468 996 l 468 894 l 358 894 l 358 617 l 221 617 l 221 894 l 111 894 l 111 996 l 468 996 "},"ã":{"x_min":-16,"x_max":653,"ha":715,"o":"m 393 381 q 313 341 365 360 q 244 310 261 321 q 211 271 223 298 q 200 210 200 245 q 216 155 200 174 q 266 137 233 137 q 330 167 307 137 q 370 281 353 198 l 393 381 m 342 64 q 259 1 306 23 q 159 -20 212 -20 q 30 31 76 -20 q -16 177 -16 83 q 29 348 -16 282 q 165 442 74 414 q 266 471 201 454 q 433 591 433 515 q 415 640 433 623 q 362 657 397 657 q 297 632 320 657 q 263 550 274 607 l 63 550 q 159 742 83 680 q 376 804 235 804 q 575 750 507 804 q 644 591 644 696 q 639 537 644 568 q 622 439 635 505 l 561 161 q 554 116 557 139 q 552 67 552 93 q 553 37 552 54 q 556 0 554 20 l 342 0 l 342 64 m 293 878 l 210 878 q 267 995 229 954 q 357 1037 305 1037 q 392 1034 374 1037 q 429 1025 410 1031 l 468 1012 q 488 1007 477 1009 q 511 1006 498 1006 q 547 1016 533 1006 q 568 1051 561 1027 l 653 1051 q 592 935 629 971 q 496 899 555 899 q 466 900 480 899 q 443 905 453 902 l 402 918 q 375 927 387 924 q 356 930 363 930 q 317 917 332 930 q 293 878 301 904 "},"æ":{"x_min":-16,"x_max":1000,"ha":1060,"o":"m 625 493 l 788 493 q 797 547 794 525 q 801 584 801 570 q 784 645 801 625 q 734 666 767 666 q 668 631 691 666 q 625 493 645 597 m 393 381 q 313 341 365 360 q 244 311 261 322 q 211 272 223 298 q 200 211 200 246 q 216 156 200 175 q 266 138 233 138 q 330 168 307 138 q 370 282 353 199 l 393 381 m 419 69 q 314 1 369 23 q 194 -21 260 -21 q 35 27 86 -21 q -16 179 -16 76 q 29 349 -16 283 q 165 442 74 415 q 266 471 201 454 q 433 591 433 515 q 415 640 433 623 q 362 657 398 657 q 297 632 320 657 q 263 550 274 607 l 63 550 q 158 741 81 677 q 370 806 235 806 q 474 789 431 806 q 548 737 518 772 q 634 789 587 772 q 744 806 682 806 q 933 744 867 806 q 1000 571 1000 683 q 991 486 1000 538 q 966 361 983 434 l 594 361 l 580 294 q 570 241 573 264 q 566 203 566 218 q 583 148 566 166 q 633 131 600 131 q 698 162 674 131 q 733 267 721 194 l 942 267 q 838 47 914 116 q 620 -21 762 -21 q 496 0 543 -21 q 419 69 448 22 "},"É":{"x_min":-24,"x_max":755,"ha":717,"o":"m -24 0 l 198 1044 l 755 1044 l 712 845 l 401 845 l 359 647 l 659 647 l 616 447 l 316 447 l 265 203 l 588 203 l 545 0 l -24 0 m 488 1132 l 402 1132 l 539 1325 l 719 1325 l 488 1132 "},"~":{"x_min":121,"x_max":1038,"ha":1157,"o":"m 1038 367 q 907 299 968 320 q 786 278 846 278 q 710 285 749 278 q 605 316 671 293 q 474 353 521 344 q 380 363 426 363 q 261 337 323 363 q 121 255 199 311 l 121 459 q 267 533 201 510 q 397 556 333 556 q 481 547 437 556 q 586 520 525 539 q 629 505 601 515 q 789 469 732 469 q 907 493 847 469 q 1038 570 968 518 l 1038 367 "},"³":{"x_min":5,"x_max":466,"ha":492,"o":"m 9 618 l 152 618 q 151 612 152 617 q 147 569 147 583 q 157 524 147 538 q 192 510 168 510 q 241 538 223 510 q 259 617 259 566 q 239 677 259 661 q 167 694 219 694 l 163 694 l 186 796 q 204 795 199 795 q 213 794 209 794 q 292 818 266 794 q 319 894 319 843 q 308 930 319 917 q 279 943 298 943 q 236 924 252 943 q 216 869 220 905 l 74 869 q 136 999 84 956 q 284 1043 189 1043 q 419 1003 373 1043 q 466 890 466 964 q 433 785 466 825 q 337 727 400 744 q 394 675 376 705 q 413 602 413 645 q 354 454 413 507 q 192 401 296 401 q 52 444 100 401 q 5 573 5 488 q 6 594 5 583 q 9 618 7 606 "},"¡":{"x_min":4,"x_max":452,"ha":460,"o":"m 452 1044 l 403 815 l 167 815 l 215 1044 l 452 1044 m 331 708 l 315 292 l 253 0 l 4 0 l 69 308 l 212 708 l 331 708 "},"[":{"x_min":-81,"x_max":512,"ha":467,"o":"m 512 1044 l 484 909 l 366 909 l 146 -129 l 263 -129 l 234 -264 l -81 -264 l 197 1044 l 512 1044 "},"%":{"x_min":54,"x_max":1093,"ha":1147,"o":"m 804 252 q 817 141 804 172 q 865 111 831 111 q 914 142 900 111 q 929 252 929 173 q 914 362 929 330 q 865 395 900 395 q 817 363 831 395 q 804 252 804 332 m 640 252 q 692 463 640 400 q 866 526 745 526 q 1040 463 987 526 q 1093 252 1093 400 q 1040 42 1093 104 q 866 -20 988 -20 q 692 42 744 -20 q 640 252 640 104 m 256 -20 l 757 1051 l 889 1051 l 389 -20 l 256 -20 m 218 778 q 231 667 218 698 q 280 636 245 636 q 328 667 314 636 q 343 778 343 698 q 328 888 343 857 q 280 920 314 920 q 231 888 245 920 q 218 778 218 857 m 54 779 q 106 988 54 926 q 280 1051 158 1051 q 454 988 402 1051 q 507 779 507 926 q 454 568 507 631 q 280 505 401 505 q 106 568 158 505 q 54 779 54 631 "},"P":{"x_min":-24,"x_max":791,"ha":800,"o":"m 346 592 l 406 592 q 511 638 474 592 q 548 767 548 684 q 524 840 548 814 q 460 866 501 866 l 405 866 l 346 592 m -24 0 l 198 1044 l 430 1044 q 614 1030 554 1044 q 712 984 674 1016 q 771 902 751 951 q 791 789 791 853 q 700 506 791 599 q 426 413 609 413 l 309 413 l 222 0 l -24 0 "},"∏":{"x_min":94,"x_max":1043,"ha":1145,"o":"m 94 999 l 1043 999 l 1043 -266 l 722 -266 l 722 733 l 415 733 l 415 -266 l 94 -266 l 94 999 "},"_":{"x_min":0,"x_max":694,"ha":694,"o":"m 694 -137 l 694 -328 l 0 -328 l 0 -137 l 694 -137 "},"ñ":{"x_min":-33,"x_max":662,"ha":715,"o":"m -33 0 l 133 785 l 328 785 l 313 708 q 403 779 359 757 q 497 802 448 802 q 613 760 571 802 q 656 647 656 719 q 651 583 656 620 q 637 507 646 546 l 529 0 l 313 0 l 429 548 q 432 568 431 558 q 434 594 434 577 q 422 631 434 619 q 385 643 410 643 q 327 609 349 643 q 287 491 305 576 l 183 0 l -33 0 m 302 878 l 219 878 q 276 995 238 954 q 366 1037 314 1037 q 401 1034 383 1037 q 438 1025 419 1031 l 477 1012 q 497 1007 486 1009 q 520 1006 507 1006 q 556 1016 542 1006 q 577 1051 570 1027 l 662 1051 q 601 935 638 971 q 505 899 564 899 q 475 900 489 899 q 452 905 462 902 l 411 918 q 384 927 396 924 q 365 930 372 930 q 326 917 341 930 q 302 878 310 904 "},"‚":{"x_min":-65,"x_max":240,"ha":374,"o":"m 87 26 l -26 26 l 19 241 l 240 241 l 195 34 q 112 -131 171 -81 q -65 -185 52 -180 l -48 -109 q 44 -72 12 -103 q 87 26 75 -41 "},"Æ":{"x_min":-129,"x_max":1160,"ha":1122,"o":"m 308 381 l 470 381 l 569 845 l 512 845 l 308 381 m 390 0 l 432 203 l 225 203 l 136 0 l -129 0 l 425 1044 l 1160 1044 l 1117 845 l 805 845 l 763 647 l 1064 647 l 1020 447 l 722 447 l 669 203 l 994 203 l 950 0 l 390 0 "},"₣":{"x_min":-24,"x_max":1227,"ha":1186,"o":"m -24 0 l 198 1044 l 762 1044 l 719 841 l 401 841 l 359 647 l 666 647 l 623 444 l 316 444 l 222 0 l -24 0 m 677 0 l 844 785 l 1035 785 l 1003 635 q 1092 766 1042 725 q 1212 807 1142 807 l 1227 807 l 1175 564 l 1128 564 q 1031 529 1063 564 q 972 368 1000 495 l 893 0 l 677 0 "},"ğ":{"x_min":-58,"x_max":695,"ha":724,"o":"m 263 448 l 244 367 q 232 302 236 332 q 228 252 228 273 q 243 201 228 220 q 285 183 258 183 q 342 215 320 183 q 384 346 363 247 l 404 441 q 415 502 411 474 q 419 548 419 529 q 404 601 419 582 q 359 620 388 620 q 308 589 327 620 q 263 448 289 558 m 333 107 q 259 46 297 65 q 173 28 221 28 q 51 74 91 28 q 11 213 11 120 q 26 373 11 285 q 70 562 41 462 q 161 751 110 698 q 295 804 211 804 q 396 776 356 804 q 466 687 435 749 l 487 785 l 695 785 l 553 120 l 549 104 q 456 -175 503 -116 q 355 -252 412 -228 q 216 -277 298 -277 q 12 -225 82 -277 q -58 -76 -58 -174 q -57 -65 -58 -73 q -56 -54 -56 -57 l 150 -54 q 149 -62 149 -58 q 149 -73 149 -66 q 164 -121 149 -105 q 209 -137 179 -137 q 272 -108 251 -137 q 316 32 293 -79 l 333 107 m 262 1062 l 351 1062 q 377 998 352 1019 q 451 977 402 977 q 538 997 502 977 q 598 1062 574 1018 l 690 1062 q 597 917 661 966 q 439 868 533 868 q 306 911 350 868 q 262 1042 262 955 l 262 1062 "},"ª":{"x_min":-11,"x_max":483,"ha":536,"o":"m 293 763 q 234 734 273 748 q 183 713 195 720 q 158 685 167 704 q 150 642 150 667 q 162 604 150 618 q 199 591 175 591 q 247 613 230 591 q 277 692 264 635 l 293 763 m 256 541 q 194 496 229 511 q 119 482 159 482 q 23 518 57 482 q -11 620 -11 554 q 22 739 -11 693 q 123 805 55 785 q 198 825 151 813 q 324 909 324 856 q 310 944 324 932 q 271 956 297 956 q 223 938 240 956 q 198 881 206 921 l 48 880 q 119 1015 63 972 q 281 1059 176 1059 q 431 1021 380 1059 q 483 909 483 983 q 479 869 483 893 q 466 804 475 846 l 421 610 q 416 579 417 595 q 414 543 414 564 q 415 515 414 525 q 417 496 415 505 l 256 496 l 256 541 "},"Œ":{"x_min":26,"x_max":1151,"ha":1114,"o":"m 344 659 l 286 386 q 267 292 273 329 q 261 237 261 256 q 280 185 261 205 q 331 166 299 166 q 404 202 378 166 q 460 386 429 238 l 519 658 q 538 752 532 715 q 544 807 544 788 q 524 859 544 839 q 471 879 504 879 q 400 844 425 879 q 344 659 375 809 m 437 0 l 458 94 q 377 9 425 36 q 258 -18 329 -18 q 86 50 146 -18 q 26 245 26 118 q 31 321 26 276 q 47 427 36 367 q 102 696 74 585 q 165 880 131 807 q 276 1016 205 972 q 451 1061 346 1061 q 573 1033 527 1061 q 639 948 619 1006 l 659 1044 l 1151 1044 l 1108 845 l 798 845 l 756 647 l 1054 647 l 1013 447 l 713 447 l 662 203 l 985 203 l 942 0 l 437 0 "},"T":{"x_min":83,"x_max":772,"ha":688,"o":"m 109 0 l 287 839 l 83 839 l 127 1044 l 772 1044 l 728 839 l 533 839 l 356 0 l 109 0 "},"š":{"x_min":-26,"x_max":645,"ha":636,"o":"m -24 257 l 170 257 l 170 238 q 190 148 170 177 q 253 120 210 120 q 307 139 286 120 q 328 191 328 158 q 313 238 328 216 q 249 300 299 259 q 225 320 241 307 q 59 580 59 457 q 128 745 59 686 q 324 804 198 804 q 517 746 451 804 q 584 577 584 688 q 583 552 584 560 q 582 537 583 543 l 394 537 l 394 556 q 376 639 394 613 q 320 666 358 666 q 271 649 288 666 q 255 602 255 632 q 340 487 255 555 q 352 478 348 481 q 490 339 458 392 q 523 217 523 285 q 454 42 523 105 q 261 -20 385 -20 q 45 40 117 -20 q -26 223 -26 101 q -25 243 -26 236 q -24 257 -25 250 m 214 1061 l 300 1061 l 399 962 l 546 1061 l 645 1061 l 471 868 l 309 868 l 214 1061 "},"Þ":{"x_min":-24,"x_max":759,"ha":800,"o":"m 316 468 l 374 468 q 478 504 441 468 q 516 605 516 540 q 492 663 516 642 q 428 685 469 685 l 370 685 l 316 468 m -24 0 l 198 1044 l 442 1044 l 404 864 l 485 864 q 687 803 615 864 q 759 632 759 742 q 668 374 759 459 q 395 289 578 289 l 280 289 l 222 0 l -24 0 "},"j":{"x_min":-149,"x_max":413,"ha":382,"o":"m 159 881 l 196 1062 l 413 1062 l 375 881 l 159 881 m 199 52 l 195 33 q 113 -208 153 -158 q 43 -256 85 -240 q -57 -272 1 -272 q -98 -270 -75 -272 q -149 -266 -121 -269 l -115 -112 q -108 -113 -112 -113 q -97 -114 -104 -114 q -21 32 -51 -114 l -21 33 l 138 785 l 354 785 l 199 52 "},"1":{"x_min":136,"x_max":641,"ha":745,"o":"m 188 0 l 341 717 q 267 705 303 709 q 198 701 232 701 q 166 702 182 701 q 136 705 150 703 l 166 848 q 358 896 281 852 q 483 1032 434 941 l 641 1032 l 422 0 l 188 0 "},"›":{"x_min":0,"x_max":328,"ha":410,"o":"m 111 653 l 328 459 l 294 302 l 0 131 l 38 315 l 193 398 l 76 491 l 111 653 "},"<":{"x_min":179,"x_max":978,"ha":1157,"o":"m 978 635 l 434 413 l 978 191 l 978 -11 l 179 319 l 179 509 l 978 840 l 978 635 "},"t":{"x_min":14,"x_max":470,"ha":443,"o":"m 248 235 q 242 205 244 215 q 240 189 240 195 q 254 157 240 166 q 307 149 267 149 l 335 149 l 301 -7 q 244 -12 268 -11 q 200 -14 220 -14 q 60 21 107 -14 q 14 127 14 56 q 35 263 14 160 l 39 279 l 115 642 l 28 642 l 58 785 l 146 785 l 196 1018 l 413 1018 l 363 785 l 470 785 l 439 642 l 332 642 l 248 235 "},"¬":{"x_min":172,"x_max":984,"ha":1157,"o":"m 984 589 l 984 249 l 800 249 l 800 409 l 172 409 l 172 589 l 984 589 "},"ù":{"x_min":1,"x_max":691,"ha":715,"o":"m 345 76 q 254 5 299 27 q 160 -17 210 -17 q 42 25 84 -17 q 1 143 1 67 q 5 195 1 165 q 20 278 9 225 l 128 785 l 345 785 l 228 236 q 224 212 225 224 q 223 189 223 201 q 234 153 223 165 q 272 142 246 142 q 329 174 308 142 q 368 293 351 207 l 472 785 l 691 785 l 524 0 l 328 0 l 345 76 m 560 868 l 467 868 l 222 1061 l 415 1061 l 560 868 "},"ï":{"x_min":-31,"x_max":504,"ha":379,"o":"m -31 0 l 136 785 l 352 785 l 185 0 l -31 0 m 303 875 l 340 1053 l 504 1053 l 466 875 l 303 875 m 63 875 l 100 1053 l 264 1053 l 226 875 l 63 875 "},"Ò":{"x_min":26,"x_max":779,"ha":806,"o":"m 344 659 l 286 385 q 267 292 273 329 q 261 237 261 256 q 280 185 261 205 q 331 166 299 166 q 404 202 378 166 q 460 385 429 238 l 518 658 q 537 751 531 714 q 544 806 544 787 q 524 858 544 838 q 471 878 504 878 q 400 843 424 878 q 344 659 375 808 m 26 245 q 31 323 26 276 q 47 427 36 370 q 104 702 76 598 q 170 890 132 807 q 290 1024 211 979 q 485 1069 369 1069 q 703 998 628 1069 q 779 793 779 928 q 773 721 779 766 q 757 616 768 676 q 700 348 730 460 q 638 164 671 236 q 516 21 595 67 q 319 -25 438 -25 q 101 44 176 -25 q 26 245 26 114 m 667 1132 l 574 1132 l 329 1325 l 522 1325 l 667 1132 "},"&":{"x_min":17,"x_max":815,"ha":890,"o":"m 419 718 q 486 781 465 750 q 507 851 507 813 q 489 903 507 885 q 441 921 472 921 q 391 902 409 921 q 374 848 374 883 q 384 793 374 824 q 419 718 395 762 m 442 211 l 325 450 q 252 389 277 426 q 227 304 227 352 q 258 211 227 248 q 337 174 290 174 q 392 183 366 174 q 442 211 417 192 m 520 53 q 421 -3 475 14 q 300 -21 367 -21 q 92 59 168 -21 q 17 282 17 140 q 72 465 17 384 q 244 617 127 547 q 199 730 214 678 q 185 828 185 781 q 254 1000 185 938 q 447 1063 323 1063 q 631 1002 563 1063 q 700 843 700 942 q 651 691 700 758 q 495 559 603 624 l 583 381 q 615 447 602 412 q 636 526 628 483 l 815 526 q 768 351 803 431 q 673 199 734 271 l 769 0 l 545 0 l 520 53 "},"":{"x_min":-36,"x_max":783,"ha":745,"o":"m 534 484 l 488 399 l 317 398 q 312 375 316 392 q 287 232 287 268 q 302 180 287 198 q 349 163 318 163 q 415 191 392 163 q 459 322 437 220 l 694 322 q 566 49 643 117 q 342 -18 488 -18 q 152 31 224 -18 q 64 168 79 81 q 62 185 63 175 q 62 213 62 194 q 67 293 62 248 q 83 399 72 337 l -36 399 l 10 484 l 97 484 q 102 504 99 490 q 116 571 112 548 l 2 571 l 49 656 l 135 656 l 142 685 q 176 812 156 752 q 215 904 196 872 q 328 1016 261 982 q 510 1050 396 1050 q 713 985 644 1050 q 783 796 783 920 q 781 749 783 770 q 776 710 779 729 l 541 710 q 550 758 546 730 q 554 805 554 787 l 554 812 q 535 856 552 838 q 491 875 517 875 q 381 695 418 875 q 373 656 376 668 l 629 656 l 583 571 l 353 571 l 335 484 l 534 484 "},"˝":{"x_min":288,"x_max":728,"ha":694,"o":"m 571 1064 l 728 1064 l 521 871 l 459 871 l 571 1064 m 374 1064 l 513 1064 l 344 871 l 288 871 l 374 1064 "},"I":{"x_min":-20,"x_max":449,"ha":429,"o":"m -20 0 l 201 1044 l 449 1044 l 226 0 l -20 0 "},"G":{"x_min":26,"x_max":776,"ha":808,"o":"m 472 95 q 379 5 435 35 q 249 -25 324 -25 q 83 43 141 -25 q 26 241 26 112 q 31 320 26 273 q 47 427 36 366 q 103 695 73 583 q 166 881 133 808 q 288 1023 209 977 q 487 1069 366 1069 q 702 1000 628 1069 q 776 801 776 932 q 773 756 776 782 q 764 695 770 730 l 533 695 q 542 748 539 723 q 545 792 545 773 q 525 855 545 832 q 471 878 505 878 q 399 843 424 878 q 344 660 375 808 l 286 386 l 284 381 q 261 238 261 263 q 277 185 261 204 q 324 167 294 167 q 406 205 378 167 q 463 390 434 244 l 373 390 l 410 567 l 746 567 l 625 0 l 463 0 l 472 95 "},"`":{"x_min":212,"x_max":550,"ha":694,"o":"m 550 868 l 457 868 l 212 1061 l 405 1061 l 550 868 "},"·":{"x_min":61,"x_max":313,"ha":374,"o":"m 61 517 q 97 606 61 570 q 185 642 133 642 q 276 606 239 642 q 313 517 313 570 q 275 426 313 463 q 185 389 238 389 q 97 425 133 389 q 61 517 61 462 "},"¿":{"x_min":-22,"x_max":592,"ha":660,"o":"m 573 1044 l 525 815 l 288 815 l 336 1044 l 573 1044 m 498 710 q 318 423 488 581 q 289 395 299 404 q 228 319 246 353 q 210 247 210 284 q 229 175 210 199 q 287 151 249 151 q 350 184 328 151 q 378 290 372 218 l 592 290 q 502 60 587 140 q 267 -20 418 -20 q 58 52 139 -20 q -22 238 -22 124 q 8 378 -22 313 q 96 491 38 443 q 133 522 108 502 q 288 710 267 633 l 498 710 "},"ý":{"x_min":-87,"x_max":652,"ha":615,"o":"m 69 9 l 55 785 l 263 785 l 242 262 l 426 785 l 652 785 l 294 -75 q 194 -234 243 -197 q 58 -271 144 -271 q -6 -266 29 -271 q -87 -251 -42 -261 l -55 -98 q -20 -104 -33 -102 q 0 -106 -7 -106 q 55 -86 40 -106 q 69 -8 69 -67 l 69 9 m 364 868 l 278 868 l 415 1061 l 595 1061 l 364 868 "},"º":{"x_min":0,"x_max":480,"ha":524,"o":"m 198 831 l 175 734 q 165 677 169 702 q 161 640 161 651 q 171 602 161 615 q 204 590 182 590 q 248 610 233 590 q 281 709 264 631 l 303 808 q 315 868 311 843 q 320 902 320 892 q 309 938 320 926 q 276 951 298 951 q 232 931 246 951 q 198 831 217 911 m 0 637 q 6 704 0 663 q 23 792 12 744 q 49 888 35 846 q 73 948 62 930 q 153 1034 105 1009 q 282 1060 201 1060 q 428 1019 377 1060 q 480 902 480 978 q 473 837 480 876 q 456 751 467 798 q 429 650 442 690 q 406 591 417 610 q 327 507 375 532 q 197 482 279 482 q 50 522 101 482 q 0 637 0 562 "},"∞":{"x_min":123,"x_max":1034,"ha":1157,"o":"m 660 380 q 725 321 687 341 q 809 302 762 302 q 902 331 866 302 q 938 404 938 360 q 905 478 938 448 q 826 509 872 509 q 742 479 781 509 q 660 380 704 449 m 495 442 q 430 501 467 481 q 346 521 394 521 q 254 491 289 521 q 219 416 219 462 q 251 343 219 373 q 330 314 283 314 q 414 343 376 314 q 495 442 452 373 m 579 536 q 680 665 626 623 q 799 708 735 708 q 965 622 896 708 q 1034 410 1034 537 q 972 197 1034 279 q 814 115 911 115 q 703 150 754 115 q 575 287 651 186 q 476 157 530 199 q 357 115 422 115 q 191 200 259 115 q 123 412 123 285 q 183 626 123 544 q 341 708 244 708 q 450 672 398 708 q 579 536 501 636 "},";":{"x_min":-52.9375,"x_max":393,"ha":437,"o":"m 99 548 l 149 785 l 393 785 l 342 548 l 99 548 m -17 0 l 34 241 l 278 241 l 234 38 q 139 -159 203 -102 q -48 -217 75 -217 l -52 -217 l -35 -134 q 61 -101 27 -134 q 106 0 95 -69 l -17 0 "},"6":{"x_min":26,"x_max":728,"ha":745,"o":"m 370 528 q 327 512 345 528 q 296 464 309 496 q 262 345 275 405 q 250 239 250 284 q 264 176 250 195 q 311 157 278 157 q 351 171 332 157 q 381 212 370 186 q 418 329 404 264 q 432 444 432 393 q 416 507 432 487 q 370 528 401 528 m 326 641 q 384 669 354 660 q 446 679 414 679 q 602 613 548 679 q 657 425 657 548 q 628 235 657 326 q 552 83 600 144 q 450 7 513 33 q 304 -18 386 -18 q 95 46 165 -18 q 26 239 26 111 q 53 443 26 294 l 56 457 q 108 702 84 600 q 145 837 131 803 q 259 1002 189 955 q 457 1050 328 1050 q 658 991 589 1050 q 728 821 728 933 q 725 779 728 807 q 725 775 725 776 l 513 775 q 514 787 513 781 q 514 805 514 793 q 498 861 514 843 q 449 880 482 880 q 383 841 406 880 q 326 641 360 803 "},"n":{"x_min":-33,"x_max":656,"ha":715,"o":"m -33 0 l 133 785 l 328 785 l 313 708 q 403 779 359 757 q 497 802 448 802 q 613 760 571 802 q 656 647 656 719 q 651 583 656 620 q 637 507 646 546 l 529 0 l 313 0 l 429 548 q 432 568 431 558 q 434 594 434 577 q 422 631 434 619 q 385 643 410 643 q 327 609 349 643 q 287 491 305 576 l 183 0 l -33 0 "},"¤":{"x_min":-36,"x_max":783,"ha":745,"o":"m 534 484 l 488 399 l 317 398 q 312 375 316 392 q 287 232 287 268 q 302 180 287 198 q 349 163 318 163 q 415 191 392 163 q 459 322 437 220 l 694 322 q 566 49 643 117 q 342 -18 488 -18 q 152 31 224 -18 q 64 168 79 81 q 62 185 63 175 q 62 213 62 194 q 67 293 62 248 q 83 399 72 337 l -36 399 l 10 484 l 97 484 q 102 504 99 490 q 116 571 112 548 l 2 571 l 49 656 l 135 656 l 142 685 q 176 812 156 752 q 215 904 196 872 q 328 1016 261 982 q 510 1050 396 1050 q 713 985 644 1050 q 783 796 783 920 q 781 749 783 770 q 776 710 779 729 l 541 710 q 550 758 546 730 q 554 805 554 787 l 554 812 q 535 856 552 838 q 491 875 517 875 q 381 695 418 875 q 373 656 376 668 l 629 656 l 583 571 l 353 571 l 335 484 l 534 484 "},"∂":{"x_min":25,"x_max":745,"ha":772,"o":"m 522 485 q 546 627 539 571 q 553 729 553 684 q 535 837 553 800 q 482 874 517 874 q 443 859 460 874 q 408 811 426 845 q 346 730 378 757 q 277 704 313 704 q 207 729 235 704 q 180 794 180 755 q 249 894 180 853 q 419 936 319 936 q 658 825 571 936 q 745 520 745 715 q 631 134 745 284 q 337 -16 517 -16 q 108 62 191 -16 q 25 278 25 140 q 110 509 25 416 q 319 602 196 602 q 436 572 384 602 q 522 485 487 542 m 471 375 q 447 492 471 452 q 380 532 424 532 q 278 436 319 532 q 237 196 237 341 q 260 79 237 118 q 328 40 283 40 q 430 135 390 40 q 471 375 471 230 "},"p":{"x_min":-86,"x_max":665,"ha":724,"o":"m 290 488 l 259 343 q 249 282 253 309 q 245 235 245 254 q 260 182 245 200 q 304 164 276 164 q 357 196 337 164 q 401 336 377 228 l 430 467 q 442 532 438 503 q 447 583 447 562 q 432 635 447 617 q 387 653 417 653 q 331 618 352 653 q 290 488 309 584 m -86 -264 l 136 785 l 328 785 l 314 710 q 398 782 352 758 q 503 806 445 806 q 625 761 585 806 q 665 625 665 717 q 645 446 665 554 q 589 215 625 337 q 501 32 551 86 q 368 -21 450 -21 q 264 11 303 -21 q 209 111 225 44 l 130 -264 l -86 -264 "},"‡":{"x_min":-43,"x_max":686,"ha":694,"o":"m 80 -239 l 147 72 l -43 72 l -8 240 l 181 240 l 251 565 l 61 565 l 95 733 l 287 733 l 353 1044 l 561 1044 l 495 733 l 686 733 l 651 565 l 460 565 l 391 240 l 581 240 l 547 72 l 355 72 l 290 -239 l 80 -239 "},"√":{"x_min":57,"x_max":949,"ha":946,"o":"m 949 1178 l 949 1061 l 890 1061 l 491 -28 l 394 -28 l 190 532 l 84 492 l 57 597 l 324 691 l 466 284 l 794 1178 l 949 1178 "},"S":{"x_min":-10,"x_max":711,"ha":724,"o":"m -7 366 l 215 366 q 215 361 215 363 q 213 313 213 326 q 237 199 213 235 q 313 163 261 163 q 377 191 353 163 q 402 268 402 219 q 290 442 402 346 q 244 483 261 468 q 131 624 167 555 q 96 772 96 693 q 179 993 96 916 q 420 1071 263 1071 q 637 998 563 1071 q 711 785 711 926 q 710 747 711 761 q 707 723 709 734 l 498 723 l 498 741 q 477 857 498 822 q 407 893 456 893 q 348 868 369 893 q 327 802 327 844 q 349 724 327 760 q 444 624 371 688 l 453 617 q 634 298 634 458 q 549 58 634 140 q 300 -24 465 -24 q 67 58 145 -24 q -10 306 -10 141 q -7 361 -10 324 l -7 366 "},"/":{"x_min":-49,"x_max":399,"ha":376,"o":"m 399 1069 l 66 -129 l -49 -129 l 283 1069 l 399 1069 "},"y":{"x_min":-87,"x_max":652,"ha":615,"o":"m 69 9 l 55 785 l 263 785 l 242 262 l 426 785 l 652 785 l 294 -75 q 194 -234 243 -197 q 58 -271 144 -271 q -6 -266 29 -271 q -87 -251 -42 -261 l -55 -98 q -20 -104 -33 -102 q 0 -106 -7 -106 q 55 -86 40 -106 q 69 -8 69 -67 l 69 9 "},"≈":{"x_min":121,"x_max":1038,"ha":1157,"o":"m 1038 208 q 905 140 966 162 q 785 119 844 119 q 595 162 726 119 q 380 206 464 206 q 263 180 325 206 q 121 98 202 155 l 121 302 q 265 375 199 352 q 399 398 331 398 q 608 354 479 398 q 790 311 736 311 q 905 334 846 311 q 1038 411 963 357 l 1038 208 m 1038 524 q 905 455 966 476 q 786 434 845 434 q 595 478 726 434 q 380 522 464 522 q 263 497 323 522 q 121 415 203 472 l 121 618 q 266 691 199 668 q 399 714 332 714 q 608 670 479 714 q 790 627 736 627 q 906 650 848 627 q 1038 728 965 674 l 1038 524 "},"g":{"x_min":-58,"x_max":695,"ha":724,"o":"m 263 448 l 244 367 q 232 302 236 332 q 228 252 228 273 q 243 201 228 220 q 285 183 258 183 q 342 215 320 183 q 384 346 363 247 l 404 441 q 415 502 411 474 q 419 548 419 529 q 404 601 419 582 q 359 620 388 620 q 308 589 327 620 q 263 448 289 558 m 333 107 q 259 46 297 65 q 173 28 221 28 q 51 74 91 28 q 11 213 11 120 q 26 373 11 285 q 70 562 41 462 q 161 751 110 698 q 295 804 211 804 q 396 776 356 804 q 466 687 435 749 l 487 785 l 695 785 l 553 120 l 549 104 q 456 -175 503 -116 q 355 -252 412 -228 q 216 -277 298 -277 q 12 -225 82 -277 q -58 -76 -58 -174 q -57 -65 -58 -73 q -56 -54 -56 -57 l 150 -54 q 149 -62 149 -58 q 149 -73 149 -66 q 164 -121 149 -105 q 209 -137 179 -137 q 272 -108 251 -137 q 316 32 293 -79 l 333 107 "},"²":{"x_min":-29,"x_max":474,"ha":492,"o":"m -29 412 q -14 497 -25 460 q 15 565 -3 535 q 67 631 35 598 q 170 718 99 663 q 210 748 184 729 q 319 889 319 829 q 306 926 319 913 q 267 939 293 939 q 223 912 238 939 q 206 834 208 886 l 60 834 q 120 991 67 939 q 275 1043 174 1043 q 420 999 367 1043 q 474 881 474 956 q 445 781 474 825 q 330 674 417 737 q 297 649 319 666 q 157 527 184 568 l 407 527 l 379 412 l -29 412 "},"ë":{"x_min":7,"x_max":647,"ha":707,"o":"m 590 267 q 486 47 563 116 q 269 -21 410 -21 q 74 36 142 -21 q 7 202 7 94 q 14 290 7 236 q 38 419 22 344 q 74 560 57 503 q 105 647 91 618 q 213 769 148 732 q 385 806 277 806 q 580 746 514 806 q 647 572 647 686 q 638 487 647 540 q 613 361 630 434 l 242 361 l 227 294 q 218 244 221 268 q 215 203 215 221 q 231 148 215 166 q 282 131 248 131 q 347 162 323 131 q 382 267 370 194 l 590 267 m 272 493 l 437 493 q 446 547 443 524 q 450 584 450 570 q 432 645 450 625 q 381 666 414 666 q 315 631 338 666 q 272 493 292 597 m 446 875 l 483 1053 l 647 1053 l 609 875 l 446 875 m 206 875 l 243 1053 l 407 1053 l 369 875 l 206 875 "},"–":{"x_min":-45,"x_max":683,"ha":694,"o":"m -45 313 l -10 471 l 683 471 l 649 313 l -45 313 "},"ƒ":{"x_min":18,"x_max":682,"ha":745,"o":"m 249 527 l 108 527 l 108 680 l 277 680 l 289 753 q 381 984 319 915 q 552 1053 442 1053 q 607 1048 575 1053 q 682 1034 638 1043 l 645 859 q 619 866 631 864 q 595 869 607 869 q 532 827 553 869 q 499 680 511 786 l 639 680 l 639 527 l 477 527 l 424 182 q 320 -173 382 -81 q 138 -266 257 -266 q 82 -259 112 -266 q 18 -239 51 -253 l 43 -57 q 69 -68 56 -64 q 92 -73 82 -73 q 141 -46 124 -73 q 170 55 157 -20 l 249 527 "},"J":{"x_min":-58,"x_max":660,"ha":635,"o":"m -35 350 l 161 350 q 143 264 149 298 q 138 212 138 231 q 147 172 138 184 q 180 160 157 160 q 218 177 205 160 q 245 261 231 195 l 412 1044 l 660 1044 l 507 326 q 462 156 483 214 q 412 66 440 98 q 315 -2 372 19 q 179 -25 257 -25 q 4 34 66 -25 q -58 202 -58 94 q -52 269 -58 233 q -35 350 -47 305 "},"Ã":{"x_min":-98,"x_max":759,"ha":770,"o":"m 288 380 l 436 380 l 466 879 l 288 380 m -98 0 l 349 1044 l 644 1044 l 653 0 l 414 0 l 425 201 l 225 201 l 153 0 l -98 0 m 399 1142 l 316 1142 q 373 1259 335 1218 q 463 1301 411 1301 q 498 1298 480 1301 q 535 1289 516 1295 l 574 1276 q 594 1271 583 1273 q 617 1270 604 1270 q 653 1280 639 1270 q 674 1315 667 1291 l 759 1315 q 698 1199 735 1235 q 602 1163 661 1163 q 572 1164 586 1163 q 549 1169 559 1166 l 508 1182 q 481 1191 493 1188 q 462 1194 469 1194 q 423 1181 438 1194 q 399 1142 407 1168 "},"©":{"x_min":69,"x_max":1088,"ha":1157,"o":"m 668 597 q 642 664 666 639 q 579 689 618 689 q 502 640 530 689 q 474 504 474 592 q 501 371 474 415 q 585 327 529 327 q 647 351 625 327 q 671 424 668 376 l 839 424 q 765 263 834 323 q 581 204 695 204 q 373 282 449 204 q 298 499 298 361 q 373 718 298 634 q 568 802 448 802 q 757 747 688 802 q 832 597 826 693 l 668 597 m 984 502 q 953 657 984 583 q 866 788 922 731 q 734 877 807 847 q 578 908 661 908 q 422 878 495 908 q 293 791 349 849 q 204 657 235 732 q 173 502 173 583 q 203 348 173 421 q 292 217 234 274 q 423 127 350 158 q 578 97 497 97 q 733 128 659 97 q 867 218 807 159 q 954 346 925 274 q 984 502 984 419 m 577 1012 q 775 974 682 1012 q 940 863 868 936 q 1049 698 1011 792 q 1088 502 1088 605 q 1050 306 1088 397 q 940 145 1012 215 q 771 32 865 72 q 577 -7 677 -7 q 384 31 476 -7 q 219 144 293 70 q 107 308 146 216 q 69 502 69 401 q 107 698 69 604 q 220 866 146 791 q 382 974 290 937 q 577 1012 473 1012 "},"˘":{"x_min":246,"x_max":674,"ha":694,"o":"m 246 1062 l 335 1062 q 361 998 336 1019 q 435 977 386 977 q 522 997 486 977 q 582 1062 558 1018 l 674 1062 q 581 917 645 966 q 423 868 517 868 q 290 911 334 868 q 246 1042 246 955 l 246 1062 "},"≥":{"x_min":172,"x_max":986,"ha":1157,"o":"m 986 160 l 986 -24 l 172 -24 l 172 160 l 986 160 m 984 616 l 984 455 l 173 204 l 173 394 l 651 536 l 173 677 l 173 869 l 984 616 "},"D":{"x_min":-24,"x_max":783,"ha":815,"o":"m 404 857 l 261 187 l 315 187 q 414 228 380 187 q 477 412 447 269 l 527 649 q 538 715 534 684 q 543 768 543 745 q 522 834 543 812 q 459 857 501 857 l 404 857 m -24 0 l 198 1044 l 490 1044 q 710 978 638 1044 q 783 777 783 912 q 778 703 783 745 q 766 612 774 661 q 714 359 742 467 q 655 180 686 250 q 540 45 614 90 q 359 0 465 0 l -24 0 "},"ÿ":{"x_min":-87,"x_max":652,"ha":615,"o":"m 69 9 l 55 785 l 263 785 l 242 262 l 426 785 l 652 785 l 294 -75 q 194 -234 243 -197 q 58 -271 144 -271 q -6 -266 29 -271 q -87 -251 -42 -261 l -55 -98 q -20 -104 -33 -102 q 0 -106 -7 -106 q 55 -86 40 -106 q 69 -8 69 -67 l 69 9 m 419 875 l 456 1053 l 620 1053 l 582 875 l 419 875 m 179 875 l 216 1053 l 380 1053 l 342 875 l 179 875 "},"ł":{"x_min":-49.875,"x_max":444.0625,"ha":406,"o":"m -18 0 l 58 365 l -49 304 l -9 486 l 95 544 l 202 1044 l 421 1044 l 337 652 l 444 713 l 404 532 l 298 473 l 198 0 l -18 0 "},"Ł":{"x_min":-47.515625,"x_max":599,"ha":652,"o":"m -17 0 l 58 349 l -47 287 l -1 495 l 103 556 l 205 1044 l 453 1044 l 371 667 l 543 767 l 505 563 l 327 460 l 273 205 l 599 205 l 554 0 l -17 0 "},"$":{"x_min":1,"x_max":723,"ha":745,"o":"m 357 665 l 402 870 q 320 838 347 866 q 294 755 294 810 q 309 708 294 731 q 357 665 325 686 m 321 164 l 325 164 q 411 192 382 164 q 441 278 441 221 q 423 335 441 306 q 371 390 405 363 l 321 164 m 3 354 l 192 354 q 192 350 192 353 q 190 300 190 317 q 203 219 190 248 q 247 176 216 190 l 305 439 q 146 583 192 515 q 101 739 101 651 q 182 949 101 871 q 406 1031 264 1028 l 426 1132 l 553 1132 l 530 1014 q 674 924 625 991 q 723 750 723 857 q 722 733 723 743 q 720 705 721 724 l 535 705 q 536 717 536 711 q 537 735 537 723 q 522 809 537 780 q 477 853 507 839 l 426 620 q 596 463 548 535 q 645 298 645 391 q 560 80 645 158 q 321 3 476 3 l 317 3 l 289 -133 l 160 -133 l 191 13 q 48 113 95 44 q 1 288 1 182 l 1 313 q 1 339 1 330 q 3 354 2 347 "},"w":{"x_min":56,"x_max":956,"ha":939,"o":"m 72 0 l 56 785 l 258 785 l 235 269 l 404 785 l 590 785 l 591 287 l 741 785 l 956 785 l 667 0 l 437 0 l 439 419 l 297 0 l 72 0 "},"\\":{"x_min":68,"x_max":260,"ha":376,"o":"m 260 -129 l 144 -129 l 68 1069 l 181 1069 l 260 -129 "},"∫":{"x_min":35,"x_max":871,"ha":903,"o":"m 257 -166 q 293 -137 276 -166 q 322 -60 311 -109 q 339 200 335 2 q 346 399 342 326 q 443 903 361 749 q 693 1057 525 1057 q 822 1017 773 1057 q 871 915 871 977 q 839 838 871 868 q 761 809 808 809 q 692 836 715 809 q 669 918 669 864 q 670 925 669 919 q 671 935 671 931 q 665 961 671 953 q 647 970 659 970 q 562 521 577 970 q 560 461 560 482 q 535 133 552 235 q 485 -47 518 31 q 372 -201 441 -149 q 211 -253 303 -253 q 83 -214 131 -253 q 35 -111 35 -175 q 65 -33 35 -62 q 147 -5 95 -5 q 212 -30 189 -5 q 236 -101 236 -56 q 235 -122 236 -110 q 234 -138 234 -134 q 240 -158 234 -151 q 257 -166 246 -166 "},"Ì":{"x_min":-20,"x_max":475,"ha":429,"o":"m -20 0 l 201 1044 l 449 1044 l 226 0 l -20 0 m 475 1132 l 382 1132 l 137 1325 l 330 1325 l 475 1132 "},"Ç":{"x_min":25,"x_max":776,"ha":787,"o":"m 701 389 q 571 69 658 163 q 320 -25 484 -25 q 100 45 176 -25 q 25 250 25 115 q 30 317 25 275 q 47 427 35 360 q 104 698 75 588 q 165 879 133 809 q 287 1022 208 976 q 485 1069 365 1069 q 700 1001 624 1069 q 776 811 776 934 q 772 744 776 780 q 761 668 769 708 l 528 668 q 540 740 536 709 q 545 791 545 771 q 525 855 545 833 q 471 878 506 878 q 399 843 424 878 q 344 658 375 808 l 286 386 q 267 292 273 329 q 261 237 261 256 q 280 185 261 205 q 331 166 299 166 q 406 205 380 166 q 463 389 432 245 l 701 389 m 112 -292 l 145 -203 q 216 -226 181 -218 q 284 -234 252 -234 q 331 -221 314 -234 q 348 -185 348 -208 q 323 -152 348 -162 q 235 -142 298 -142 l 217 -142 l 265 0 l 341 0 l 320 -61 q 435 -89 396 -61 q 474 -174 474 -118 q 426 -285 474 -244 q 297 -326 379 -326 q 214 -317 260 -326 q 112 -292 168 -309 "},"C":{"x_min":25,"x_max":776,"ha":787,"o":"m 701 389 q 571 69 658 163 q 320 -25 484 -25 q 100 45 176 -25 q 25 250 25 115 q 30 317 25 275 q 47 427 35 360 q 104 698 75 588 q 165 879 133 809 q 287 1022 208 976 q 485 1069 365 1069 q 700 1001 624 1069 q 776 811 776 934 q 772 744 776 780 q 761 668 769 708 l 528 668 q 540 740 536 709 q 545 791 545 771 q 525 855 545 833 q 471 878 506 878 q 399 843 424 878 q 344 658 375 808 l 286 386 q 267 292 273 329 q 261 237 261 256 q 280 185 261 205 q 331 166 299 166 q 406 205 380 166 q 463 389 432 245 l 701 389 "},"!":{"x_min":7,"x_max":455,"ha":460,"o":"m 126 338 l 143 751 l 205 1044 l 455 1044 l 389 737 l 247 338 l 126 338 m 7 0 l 55 229 l 292 229 l 243 0 l 7 0 "},"ç":{"x_min":0,"x_max":640,"ha":688,"o":"m 597 309 q 486 54 563 129 q 262 -21 410 -21 q 67 37 135 -21 q 0 202 0 95 q 7 290 0 236 q 31 419 15 344 q 67 560 50 503 q 98 647 84 618 q 205 769 141 732 q 378 806 270 806 q 572 747 504 806 q 640 580 640 688 q 638 537 640 559 q 632 496 636 516 l 422 496 q 429 546 427 528 q 432 578 432 563 q 415 632 432 613 q 368 652 398 652 q 309 623 330 652 q 264 481 289 594 l 234 340 q 217 253 223 289 q 212 202 212 217 q 226 152 212 170 q 269 135 241 135 q 337 171 313 135 q 381 309 362 207 l 597 309 m 68 -292 l 101 -203 q 172 -226 137 -218 q 240 -234 208 -234 q 287 -221 270 -234 q 304 -185 304 -208 q 279 -152 304 -162 q 191 -142 254 -142 l 173 -142 l 221 0 l 297 0 l 276 -61 q 391 -89 352 -61 q 430 -174 430 -118 q 382 -285 430 -244 q 253 -326 335 -326 q 170 -317 216 -326 q 68 -292 124 -309 "},"È":{"x_min":-24,"x_max":755,"ha":717,"o":"m -24 0 l 198 1044 l 755 1044 l 712 845 l 401 845 l 359 647 l 659 647 l 616 447 l 316 447 l 265 203 l 588 203 l 545 0 l -24 0 m 635 1132 l 542 1132 l 297 1325 l 490 1325 l 635 1132 "},"X":{"x_min":-79,"x_max":797,"ha":736,"o":"m -79 0 l 225 543 l 90 1044 l 330 1044 l 383 747 l 525 1044 l 797 1044 l 501 523 l 661 0 l 410 0 l 344 312 l 196 0 l -79 0 "},"ô":{"x_min":0,"x_max":641,"ha":697,"o":"m 265 481 l 235 340 q 219 258 224 294 q 214 205 214 223 q 228 152 214 170 q 273 135 243 135 q 333 163 312 135 q 377 305 353 192 l 406 445 q 423 530 417 496 q 429 580 429 565 q 414 634 429 616 q 369 652 399 652 q 309 622 330 652 q 265 481 289 593 m 0 201 q 8 296 0 239 q 31 425 16 353 q 65 559 47 500 q 98 647 83 618 q 205 769 141 732 q 378 806 269 806 q 573 747 505 806 q 641 582 641 689 q 633 490 641 545 q 610 365 625 436 q 574 222 591 280 q 543 136 558 165 q 437 15 502 51 q 262 -21 372 -21 q 68 36 136 -21 q 0 201 0 94 m 620 868 l 533 868 l 433 966 l 286 868 l 188 868 l 362 1061 l 523 1061 l 620 868 "},"đ":{"x_min":0,"x_max":835,"ha":729,"o":"m 260 431 l 234 315 q 222 249 226 280 q 218 200 218 218 q 233 148 218 166 q 277 131 248 131 q 333 164 311 131 q 374 294 354 198 l 402 425 q 412 483 409 454 q 416 531 416 511 q 400 585 416 566 q 356 604 384 604 q 305 572 324 604 q 260 431 285 541 m 751 1044 l 734 965 l 835 965 l 811 844 l 710 844 l 528 0 l 336 0 l 351 75 q 264 2 311 25 q 161 -21 218 -21 q 39 23 79 -21 q 0 160 0 67 q 21 351 0 235 q 77 577 42 467 q 164 737 113 689 q 295 786 214 786 q 397 754 359 786 q 451 658 435 722 l 491 844 l 323 844 l 348 965 l 518 965 l 534 1044 l 751 1044 "},"}":{"x_min":82,"x_max":598,"ha":694,"o":"m 435 786 l 435 612 q 466 491 435 526 q 574 456 498 456 q 585 457 577 456 q 598 458 593 458 l 598 265 q 585 265 593 265 q 574 266 577 266 q 466 231 498 266 q 435 109 435 195 l 435 -64 q 418 -191 435 -153 q 359 -250 401 -229 q 281 -273 329 -266 q 145 -280 234 -280 l 82 -280 l 82 -87 q 97 -87 88 -87 q 111 -88 107 -88 q 190 -68 170 -88 q 211 18 211 -47 l 211 181 q 242 308 211 271 q 358 361 274 345 q 242 413 274 376 q 211 541 211 450 l 211 703 q 190 790 211 769 q 111 810 170 810 q 97 809 107 810 q 82 809 88 809 l 82 1002 l 136 1002 q 278 994 229 1002 q 359 971 327 987 q 418 912 401 950 q 435 786 435 874 "},"â":{"x_min":-16,"x_max":644,"ha":715,"o":"m 393 381 q 313 341 365 360 q 244 310 261 321 q 211 271 223 298 q 200 210 200 245 q 216 155 200 174 q 266 137 233 137 q 330 167 307 137 q 370 281 353 198 l 393 381 m 342 64 q 259 1 306 23 q 159 -20 212 -20 q 30 31 76 -20 q -16 177 -16 83 q 29 348 -16 282 q 165 442 74 414 q 266 471 201 454 q 433 591 433 515 q 415 640 433 623 q 362 657 397 657 q 297 632 320 657 q 263 550 274 607 l 63 550 q 159 742 83 680 q 376 804 235 804 q 575 750 507 804 q 644 591 644 696 q 639 537 644 568 q 622 439 635 505 l 561 161 q 554 116 557 139 q 552 67 552 93 q 553 37 552 54 q 556 0 554 20 l 342 0 l 342 64 m 619 868 l 532 868 l 432 966 l 285 868 l 187 868 l 361 1061 l 522 1061 l 619 868 "},"ø":{"x_min":-48.828125,"x_max":689.46875,"ha":697,"o":"m 414 455 l 213 178 q 230 146 214 157 q 273 135 245 135 q 380 303 341 135 l 381 305 l 414 455 m 222 308 l 430 592 q 413 636 430 620 q 368 652 397 652 q 306 622 327 652 q 259 481 284 592 l 222 308 m -48 -48 l 38 71 q 9 131 19 99 q 0 204 0 164 q 7 289 0 236 q 31 419 15 341 q 66 559 49 500 q 98 647 84 618 q 206 770 141 734 q 384 806 270 806 q 470 796 431 806 q 543 768 509 787 l 612 867 l 689 814 l 608 704 q 633 644 625 675 q 642 576 642 612 q 634 491 642 543 q 611 371 626 439 q 575 226 593 286 q 543 136 558 166 q 436 14 501 50 q 257 -21 370 -21 q 175 -13 211 -21 q 108 10 139 -5 l 25 -103 l -48 -48 "},"Ä":{"x_min":-98,"x_max":757,"ha":770,"o":"m 288 380 l 436 380 l 466 879 l 288 380 m -98 0 l 349 1044 l 644 1044 l 653 0 l 414 0 l 425 201 l 225 201 l 153 0 l -98 0 m 556 1139 l 593 1317 l 757 1317 l 719 1139 l 556 1139 m 316 1139 l 353 1317 l 517 1317 l 479 1139 l 316 1139 "},"‰":{"x_min":54,"x_max":1607,"ha":1668,"o":"m 1318 252 q 1331 141 1318 172 q 1380 111 1345 111 q 1428 141 1414 111 q 1443 252 1443 172 q 1428 363 1443 332 q 1380 395 1414 395 q 1331 363 1345 395 q 1318 252 1318 332 m 1154 252 q 1206 463 1154 400 q 1380 526 1258 526 q 1554 463 1501 526 q 1607 252 1607 400 q 1554 42 1607 104 q 1380 -20 1502 -20 q 1206 42 1258 -20 q 1154 252 1154 104 m 804 252 q 817 141 804 172 q 865 111 831 111 q 914 142 900 111 q 929 252 929 173 q 914 362 929 330 q 865 395 900 395 q 817 363 831 395 q 804 252 804 332 m 640 252 q 692 463 640 400 q 866 526 745 526 q 1040 463 987 526 q 1093 252 1093 400 q 1040 42 1093 104 q 866 -20 988 -20 q 692 42 744 -20 q 640 252 640 104 m 256 -20 l 757 1051 l 889 1051 l 389 -20 l 256 -20 m 218 778 q 231 667 218 698 q 280 636 245 636 q 328 667 314 636 q 343 778 343 698 q 328 888 343 857 q 280 920 314 920 q 231 888 245 920 q 218 778 218 857 m 54 779 q 106 988 54 926 q 280 1051 158 1051 q 454 988 402 1051 q 507 779 507 926 q 454 568 507 631 q 280 505 401 505 q 106 568 158 505 q 54 779 54 631 "},"N":{"x_min":-22,"x_max":863,"ha":839,"o":"m -22 0 l 198 1044 l 447 1044 l 493 691 q 501 608 495 675 q 518 425 508 541 l 523 425 q 549 615 538 534 q 563 717 560 695 l 632 1044 l 863 1044 l 640 0 l 393 0 l 350 353 q 333 504 340 433 q 322 638 327 575 l 312 638 q 288 425 296 486 q 273 328 280 364 l 206 0 l -22 0 "},"—":{"x_min":-45,"x_max":1378,"ha":1389,"o":"m 1378 471 l 1344 313 l -45 313 l -10 471 l 1378 471 "},"2":{"x_min":-45,"x_max":717,"ha":745,"o":"m -45 0 q -23 138 -40 75 q 22 254 -7 201 q 254 505 79 358 l 256 507 q 317 558 277 525 q 482 793 482 693 q 461 855 482 834 q 403 877 441 877 q 337 834 360 877 q 311 701 315 791 l 90 701 q 181 964 100 877 q 416 1051 262 1051 q 636 978 556 1051 q 717 781 717 906 q 672 614 717 688 q 499 437 628 540 q 454 401 484 424 q 237 193 279 262 l 616 193 l 575 0 l -45 0 "},"ü":{"x_min":1,"x_max":691,"ha":715,"o":"m 345 76 q 254 5 299 27 q 160 -17 210 -17 q 42 25 84 -17 q 1 143 1 67 q 5 195 1 165 q 20 278 9 225 l 128 785 l 345 785 l 228 236 q 224 212 225 224 q 223 189 223 201 q 234 153 223 165 q 272 142 246 142 q 329 174 308 142 q 368 293 351 207 l 472 785 l 691 785 l 524 0 l 328 0 l 345 76 m 468 875 l 505 1053 l 669 1053 l 631 875 l 468 875 m 228 875 l 265 1053 l 429 1053 l 391 875 l 228 875 "},"":{"x_min":-14,"x_max":819,"ha":790,"o":"m 383 0 l 605 1044 l 819 1044 l 597 0 l 383 0 m -14 0 l 122 642 l 34 642 l 65 785 l 151 785 l 161 825 q 244 1001 187 951 q 414 1051 301 1051 q 461 1049 435 1051 q 522 1044 487 1047 l 489 898 q 476 900 484 899 q 456 901 469 901 q 400 876 419 901 q 370 785 382 852 l 466 785 l 437 642 l 340 642 l 204 0 l -14 0 "},"Ó":{"x_min":26,"x_max":779,"ha":806,"o":"m 344 659 l 286 385 q 267 292 273 329 q 261 237 261 256 q 280 185 261 205 q 331 166 299 166 q 404 202 378 166 q 460 385 429 238 l 518 658 q 537 751 531 714 q 544 806 544 787 q 524 858 544 838 q 471 878 504 878 q 400 843 424 878 q 344 659 375 808 m 26 245 q 31 323 26 276 q 47 427 36 370 q 104 702 76 598 q 170 890 132 807 q 290 1024 211 979 q 485 1069 369 1069 q 703 998 628 1069 q 779 793 779 928 q 773 721 779 766 q 757 616 768 676 q 700 348 730 460 q 638 164 671 236 q 516 21 595 67 q 319 -25 438 -25 q 101 44 176 -25 q 26 245 26 114 m 520 1132 l 434 1132 l 571 1325 l 751 1325 l 520 1132 "},"˜":{"x_min":218,"x_max":661,"ha":694,"o":"m 301 878 l 218 878 q 275 995 237 954 q 365 1037 313 1037 q 400 1034 382 1037 q 437 1025 418 1031 l 476 1012 q 496 1007 485 1009 q 519 1006 506 1006 q 555 1016 541 1006 q 576 1051 569 1027 l 661 1051 q 600 935 637 971 q 504 899 563 899 q 474 900 488 899 q 451 905 461 902 l 410 918 q 383 927 395 924 q 364 930 371 930 q 325 917 340 930 q 301 878 309 904 "},"ˇ":{"x_min":243,"x_max":674,"ha":694,"o":"m 243 1061 l 329 1061 l 428 962 l 575 1061 l 674 1061 l 500 868 l 338 868 l 243 1061 "},"Ÿ":{"x_min":72,"x_max":800,"ha":699,"o":"m 122 0 l 225 487 l 72 1044 l 315 1044 l 377 736 l 527 1044 l 800 1044 l 465 463 l 366 0 l 122 0 m 518 1139 l 555 1317 l 719 1317 l 681 1139 l 518 1139 m 278 1139 l 315 1317 l 479 1317 l 441 1139 l 278 1139 "},"€":{"x_min":-36,"x_max":783,"ha":745,"o":"m 534 484 l 488 399 l 317 398 q 312 375 316 392 q 287 232 287 268 q 302 180 287 198 q 349 163 318 163 q 415 191 392 163 q 459 322 437 220 l 694 322 q 566 49 643 117 q 342 -18 488 -18 q 152 31 224 -18 q 64 168 79 81 q 62 185 63 175 q 62 213 62 194 q 67 293 62 248 q 83 399 72 337 l -36 399 l 10 484 l 97 484 q 102 504 99 490 q 116 571 112 548 l 2 571 l 49 656 l 135 656 l 142 685 q 176 812 156 752 q 215 904 196 872 q 328 1016 261 982 q 510 1050 396 1050 q 713 985 644 1050 q 783 796 783 920 q 781 749 783 770 q 776 710 779 729 l 541 710 q 550 758 546 730 q 554 805 554 787 l 554 812 q 535 856 552 838 q 491 875 517 875 q 381 695 418 875 q 373 656 376 668 l 629 656 l 583 571 l 353 571 l 335 484 l 534 484 "},"ß":{"x_min":-31,"x_max":698,"ha":728,"o":"m -31 0 l 122 728 q 166 888 146 840 q 217 969 187 937 q 309 1031 257 1011 q 431 1051 360 1051 q 629 991 561 1051 q 698 817 698 932 q 655 639 698 702 q 537 576 613 576 l 533 576 q 606 516 583 556 q 629 409 629 475 q 608 233 629 322 q 556 88 588 144 q 481 6 524 32 q 377 -20 438 -20 q 310 -12 341 -20 q 251 12 279 -4 l 282 163 q 304 156 294 158 q 323 154 313 154 q 361 170 346 154 q 386 225 376 187 q 415 347 405 287 q 425 448 425 407 q 409 512 425 491 q 362 536 393 533 l 386 657 q 393 657 389 657 q 403 657 397 657 q 470 701 446 657 q 495 826 495 746 q 481 886 495 868 q 435 904 467 904 q 384 873 402 904 q 345 752 365 843 l 185 0 l -31 0 "},"s":{"x_min":-26,"x_max":584,"ha":636,"o":"m -24 257 l 170 257 l 170 238 q 190 148 170 177 q 253 120 210 120 q 307 139 286 120 q 328 191 328 158 q 313 238 328 216 q 249 300 299 259 q 225 320 241 307 q 59 580 59 457 q 128 745 59 686 q 324 804 198 804 q 517 746 451 804 q 584 577 584 688 q 583 552 584 560 q 582 537 583 543 l 394 537 l 394 556 q 376 639 394 613 q 320 666 358 666 q 271 649 288 666 q 255 602 255 632 q 340 487 255 555 q 352 478 348 481 q 490 339 458 392 q 523 217 523 285 q 454 42 523 105 q 261 -20 385 -20 q 45 40 117 -20 q -26 223 -26 101 q -25 243 -26 236 q -24 257 -25 250 "},"?":{"x_min":62,"x_max":676,"ha":660,"o":"m 155 336 q 333 618 166 462 q 364 648 353 637 q 425 724 407 689 q 444 798 444 760 q 424 869 444 845 q 366 893 405 893 q 303 859 325 893 q 276 755 281 826 l 62 755 q 151 984 67 904 q 386 1065 236 1065 q 595 992 515 1065 q 676 806 676 920 q 645 666 676 731 q 558 553 615 601 q 523 524 545 543 q 368 336 388 412 l 155 336 m 82 0 l 130 229 l 367 229 l 318 0 l 82 0 "},"c":{"x_min":0,"x_max":640,"ha":688,"o":"m 597 309 q 486 54 563 129 q 262 -21 410 -21 q 67 37 135 -21 q 0 202 0 95 q 7 290 0 236 q 31 419 15 344 q 67 560 50 503 q 98 647 84 618 q 205 769 141 732 q 378 806 270 806 q 572 747 504 806 q 640 580 640 688 q 638 537 640 559 q 632 496 636 516 l 422 496 q 429 546 427 528 q 432 578 432 563 q 415 632 432 613 q 368 652 398 652 q 309 623 330 652 q 264 481 289 594 l 234 340 q 217 253 223 289 q 212 202 212 217 q 226 152 212 170 q 269 135 241 135 q 337 171 313 135 q 381 309 362 207 l 597 309 "},"¶":{"x_min":7,"x_max":689,"ha":694,"o":"m 689 907 l 620 907 l 620 0 l 482 0 l 482 907 l 387 907 l 387 0 l 249 0 l 249 532 q 73 601 139 537 q 7 766 7 666 q 78 937 7 872 q 269 1003 150 1003 l 689 1003 l 689 907 "},"•":{"x_min":208,"x_max":609,"ha":819,"o":"m 208 516 q 266 657 208 599 q 409 716 325 716 q 550 657 491 716 q 609 516 609 598 q 549 374 609 433 q 407 315 490 315 q 266 373 324 315 q 208 516 208 432 "},"(":{"x_min":32,"x_max":513,"ha":467,"o":"m 104 -264 q 49 -44 67 -154 q 32 177 32 65 q 108 623 32 405 q 336 1044 185 842 l 513 1044 q 293 561 368 814 q 218 56 218 307 q 227 -92 218 -12 q 258 -264 237 -173 l 104 -264 "},"◊":{"x_min":4,"x_max":682,"ha":686,"o":"m 343 955 l 81 398 l 343 -158 l 604 398 l 343 955 m 343 1121 l 682 398 l 343 -324 l 4 398 l 343 1121 "},"­":{"x_min":7,"x_max":476,"ha":541,"o":"m 7 288 l 51 498 l 476 498 l 431 288 l 7 288 "},":":{"x_min":-17,"x_max":393,"ha":437,"o":"m -17 0 l 34 237 l 278 237 l 226 0 l -17 0 m 99 548 l 149 785 l 393 785 l 342 548 l 99 548 "},"Û":{"x_min":35,"x_max":853,"ha":827,"o":"m 194 1044 l 438 1044 l 295 365 q 277 276 283 309 q 272 227 272 243 q 289 179 272 196 q 339 162 307 162 q 463 363 420 162 l 466 379 l 608 1044 l 853 1044 l 707 357 q 658 171 679 228 q 610 80 637 113 q 502 0 564 26 q 357 -25 441 -25 q 115 37 195 -25 q 35 226 35 99 q 43 315 35 258 q 70 460 52 373 l 194 1044 m 750 1132 l 663 1132 l 563 1230 l 416 1132 l 318 1132 l 492 1325 l 653 1325 l 750 1132 "},"V":{"x_min":109,"x_max":845,"ha":746,"o":"m 128 0 l 109 1044 l 345 1044 l 319 276 l 586 1044 l 845 1044 l 402 0 l 128 0 "}," ":{"x_min":0,"x_max":0,"ha":745},"@":{"x_min":47,"x_max":1341,"ha":1389,"o":"m 841 617 l 874 673 l 1038 673 l 932 248 q 930 235 931 240 q 929 227 929 231 q 938 203 929 211 q 961 194 946 194 q 1118 290 1048 194 q 1188 515 1188 387 q 1069 773 1188 675 q 756 872 951 872 q 575 847 659 872 q 423 776 491 823 q 261 593 318 703 q 205 356 205 484 q 340 38 205 156 q 703 -80 475 -80 q 911 -48 811 -80 q 1100 47 1011 -16 l 1178 -61 q 946 -184 1067 -144 q 688 -224 825 -224 q 447 -187 560 -224 q 248 -80 334 -150 q 97 108 147 0 q 47 352 47 216 q 84 577 47 471 q 195 770 122 684 q 440 954 296 890 q 753 1019 584 1019 q 1178 879 1015 1019 q 1341 517 1341 739 q 1294 304 1341 401 q 1161 140 1248 207 q 1057 83 1114 102 q 939 63 1001 63 q 826 89 865 63 q 781 167 787 115 q 694 89 741 113 q 585 65 648 65 q 410 124 469 65 q 352 302 352 184 q 449 581 352 469 q 691 693 546 693 q 779 673 741 693 q 841 617 818 654 m 763 334 l 795 466 q 766 537 790 512 q 704 563 742 563 q 591 484 640 563 q 543 298 543 405 q 563 222 543 249 q 622 196 584 196 q 709 233 671 196 q 763 334 748 271 "},"¾":{"x_min":5,"x_max":1153,"ha":1169,"o":"m 924 207 l 990 432 l 813 207 l 924 207 m 870 0 l 897 113 l 676 113 l 703 228 l 1003 578 l 1153 578 l 1063 207 l 1123 207 l 1099 113 l 1041 113 l 1014 0 l 870 0 m 816 1051 l 931 1051 l 351 -19 l 237 -19 l 816 1051 m 7 646 l 145 646 q 144 643 145 645 q 140 600 140 614 q 150 557 140 570 q 182 545 160 545 q 230 571 213 545 q 248 645 248 598 q 228 702 248 686 q 160 718 209 718 l 156 718 l 178 812 q 191 811 183 812 q 203 811 200 811 q 279 834 254 811 q 305 904 305 857 q 294 937 305 925 q 265 949 283 949 q 225 931 240 949 q 206 880 210 914 l 70 880 q 129 1001 79 961 q 271 1042 179 1042 q 400 1006 356 1042 q 445 900 445 970 q 414 802 445 840 q 321 748 383 764 q 376 700 358 728 q 395 632 395 671 q 338 494 395 544 q 182 445 282 445 q 50 485 95 445 q 5 604 5 526 q 7 643 5 616 q 7 646 7 645 "},"i":{"x_min":-31,"x_max":410,"ha":379,"o":"m 154 881 l 193 1062 l 410 1062 l 372 881 l 154 881 m -31 0 l 135 785 l 351 785 l 184 0 l -31 0 "},"≤":{"x_min":172,"x_max":986,"ha":1157,"o":"m 986 160 l 986 -24 l 172 -24 l 172 160 l 986 160 m 984 677 l 507 536 l 984 394 l 984 204 l 172 455 l 172 616 l 984 869 l 984 677 "},"m":{"x_min":-33,"x_max":982,"ha":1042,"o":"m -33 0 l 133 785 l 323 785 l 308 708 q 398 780 355 759 q 496 802 441 802 q 587 776 551 802 q 637 701 623 750 q 731 777 686 753 q 826 802 777 802 q 942 758 903 802 q 982 628 982 714 q 977 574 982 604 q 965 507 973 545 l 857 0 l 643 0 l 760 548 q 764 572 763 560 q 766 594 766 583 q 753 631 766 619 q 716 643 741 643 q 659 610 680 643 q 620 491 638 577 l 516 0 l 308 0 l 423 548 q 427 572 426 560 q 429 594 429 583 q 416 631 429 619 q 378 643 404 643 q 323 610 344 643 q 283 491 302 578 l 177 0 l -33 0 "},"ž":{"x_min":-66,"x_max":616,"ha":578,"o":"m -66 0 l -30 170 l 293 623 l 57 623 l 91 785 l 577 785 l 541 615 l 222 170 l 476 170 l 440 0 l -66 0 m 185 1061 l 271 1061 l 370 962 l 517 1061 l 616 1061 l 442 868 l 280 868 l 185 1061 "},"á":{"x_min":-16,"x_max":644,"ha":715,"o":"m 393 381 q 313 341 365 360 q 244 310 261 321 q 211 271 223 298 q 200 210 200 245 q 216 155 200 174 q 266 137 233 137 q 330 167 307 137 q 370 281 353 198 l 393 381 m 342 64 q 259 1 306 23 q 159 -20 212 -20 q 30 31 76 -20 q -16 177 -16 83 q 29 348 -16 282 q 165 442 74 414 q 266 471 201 454 q 433 591 433 515 q 415 640 433 623 q 362 657 397 657 q 297 632 320 657 q 263 550 274 607 l 63 550 q 159 742 83 680 q 376 804 235 804 q 575 750 507 804 q 644 591 644 696 q 639 537 644 568 q 622 439 635 505 l 561 161 q 554 116 557 139 q 552 67 552 93 q 553 37 552 54 q 556 0 554 20 l 342 0 l 342 64 m 395 868 l 309 868 l 446 1061 l 626 1061 l 395 868 "},"×":{"x_min":172,"x_max":1014,"ha":1157,"o":"m 592 546 l 881 835 l 1014 702 l 724 413 l 1014 124 l 881 -7 l 592 282 l 304 -7 l 172 124 l 461 413 l 172 702 l 304 835 l 592 546 "},"İ":{"x_min":-20,"x_max":470,"ha":429,"o":"m -20 0 l 201 1044 l 449 1044 l 226 0 l -20 0 m 259 1139 l 299 1323 l 470 1323 l 430 1139 l 259 1139 "},"K":{"x_min":-20,"x_max":865,"ha":775,"o":"m -20 0 l 201 1044 l 444 1044 l 351 648 l 601 1044 l 865 1044 l 517 573 l 667 0 l 426 0 l 352 381 l 277 286 l 223 0 l -20 0 "},"7":{"x_min":75,"x_max":758,"ha":745,"o":"m 75 0 q 233 441 132 230 q 480 845 334 652 l 99 845 l 138 1032 l 758 1032 l 723 868 q 488 476 589 693 q 320 0 387 258 l 75 0 "},"¨":{"x_min":218,"x_max":659,"ha":694,"o":"m 458 875 l 495 1053 l 659 1053 l 621 875 l 458 875 m 218 875 l 255 1053 l 419 1053 l 381 875 l 218 875 "},"Y":{"x_min":72,"x_max":800,"ha":699,"o":"m 122 0 l 225 487 l 72 1044 l 315 1044 l 377 736 l 527 1044 l 800 1044 l 465 463 l 366 0 l 122 0 "},"E":{"x_min":-24,"x_max":755,"ha":717,"o":"m -24 0 l 198 1044 l 755 1044 l 712 845 l 401 845 l 359 647 l 659 647 l 616 447 l 316 447 l 265 203 l 588 203 l 545 0 l -24 0 "},"Ô":{"x_min":26,"x_max":779,"ha":806,"o":"m 344 659 l 286 385 q 267 292 273 329 q 261 237 261 256 q 280 185 261 205 q 331 166 299 166 q 404 202 378 166 q 460 385 429 238 l 518 658 q 537 751 531 714 q 544 806 544 787 q 524 858 544 838 q 471 878 504 878 q 400 843 424 878 q 344 659 375 808 m 26 245 q 31 323 26 276 q 47 427 36 370 q 104 702 76 598 q 170 890 132 807 q 290 1024 211 979 q 485 1069 369 1069 q 703 998 628 1069 q 779 793 779 928 q 773 721 779 766 q 757 616 768 676 q 700 348 730 460 q 638 164 671 236 q 516 21 595 67 q 319 -25 438 -25 q 101 44 176 -25 q 26 245 26 114 m 744 1132 l 657 1132 l 557 1230 l 410 1132 l 312 1132 l 486 1325 l 647 1325 l 744 1132 "},"Ï":{"x_min":-20,"x_max":584,"ha":429,"o":"m -20 0 l 201 1044 l 449 1044 l 226 0 l -20 0 m 383 1139 l 420 1317 l 584 1317 l 546 1139 l 383 1139 m 143 1139 l 180 1317 l 344 1317 l 306 1139 l 143 1139 "},"‹":{"x_min":25,"x_max":353,"ha":410,"o":"m 241 131 l 25 325 l 56 482 l 353 655 l 314 469 l 160 386 l 276 291 l 241 131 "},"±":{"x_min":173,"x_max":985,"ha":1157,"o":"m 985 156 l 985 -28 l 173 -28 l 173 156 l 985 156 m 674 855 l 674 645 l 985 645 l 985 461 l 674 461 l 674 251 l 484 251 l 484 461 l 173 461 l 173 645 l 484 645 l 484 855 l 674 855 "},"ì":{"x_min":-31,"x_max":395,"ha":379,"o":"m -31 0 l 136 785 l 352 785 l 185 0 l -31 0 m 395 868 l 302 868 l 57 1061 l 250 1061 l 395 868 "},"|":{"x_min":253,"x_max":444,"ha":694,"o":"m 444 1061 l 444 -328 l 253 -328 l 253 1061 l 444 1061 "},"§":{"x_min":-34,"x_max":670,"ha":694,"o":"m 375 269 q 423 305 408 286 q 439 349 439 325 q 425 396 439 371 q 375 462 411 421 l 273 579 q 228 540 242 560 q 215 496 215 521 q 230 446 215 475 q 280 380 246 418 l 375 269 m -32 28 l 161 28 q 160 18 161 24 q 160 7 160 11 q 179 -66 160 -42 q 238 -91 198 -91 q 296 -68 276 -91 q 317 -7 317 -46 q 221 150 317 47 l 219 153 q 173 203 203 170 q 26 470 26 362 q 61 602 26 545 q 176 707 97 659 q 150 765 158 736 q 141 827 141 795 q 214 1001 141 935 q 406 1068 286 1068 q 598 1008 527 1068 q 670 846 670 948 q 669 830 670 836 q 668 821 669 824 l 481 820 l 481 835 q 463 898 481 878 q 407 918 445 918 q 351 898 372 918 q 331 842 331 878 q 420 703 331 795 q 467 654 451 672 q 591 495 560 553 q 623 377 623 436 q 585 244 623 302 q 473 144 548 186 q 505 76 495 110 q 516 7 516 43 q 441 -176 516 -108 q 239 -244 367 -244 q 36 -181 107 -244 q -34 -3 -34 -119 q -33 16 -34 9 q -32 28 -33 22 "},"q":{"x_min":3,"x_max":695,"ha":724,"o":"m 375 304 l 404 441 q 416 507 412 482 q 419 548 419 531 q 404 601 419 582 q 359 620 388 620 q 306 586 327 620 q 264 448 286 552 l 236 324 q 224 258 228 289 q 220 209 220 228 q 234 158 220 176 q 275 140 249 140 q 332 172 310 140 q 375 304 353 204 m 695 785 l 471 -264 l 254 -264 l 323 62 q 250 2 289 22 q 164 -17 211 -17 q 44 30 85 -17 q 3 168 3 77 q 20 347 3 244 q 72 563 38 449 q 162 751 112 699 q 296 804 212 804 q 397 776 357 804 q 465 687 436 749 l 488 785 l 695 785 "},"b":{"x_min":-31,"x_max":662,"ha":724,"o":"m 288 481 l 259 343 q 249 281 252 308 q 245 236 245 255 q 260 182 245 200 q 304 164 275 164 q 358 198 337 164 q 401 336 378 233 l 427 460 q 439 525 435 495 q 444 575 444 556 q 429 626 444 608 q 388 645 414 645 q 331 612 353 645 q 288 481 310 580 m -31 0 l 191 1044 l 408 1044 l 340 721 q 413 782 374 762 q 499 802 453 802 q 620 754 578 802 q 662 616 662 707 q 643 436 662 540 q 589 213 624 331 q 501 32 551 85 q 367 -21 450 -21 q 267 6 306 -21 q 198 96 227 33 l 176 0 l -31 0 "},"®":{"x_min":69,"x_max":1088,"ha":1157,"o":"m 558 682 l 532 682 l 532 551 l 568 551 q 627 567 607 551 q 648 617 648 584 q 626 666 648 650 q 558 682 604 682 m 584 790 q 764 748 702 790 q 826 627 826 707 q 796 536 826 574 q 715 479 767 497 l 835 239 l 646 239 l 548 450 l 532 450 l 532 239 l 358 239 l 358 790 l 584 790 m 984 502 q 953 657 984 583 q 866 788 922 731 q 734 877 807 847 q 578 908 661 908 q 422 878 495 908 q 293 791 349 849 q 204 657 235 732 q 173 502 173 583 q 203 348 173 421 q 292 217 234 274 q 423 127 350 158 q 578 97 497 97 q 733 128 659 97 q 867 218 807 159 q 954 346 925 274 q 984 502 984 419 m 577 1012 q 775 974 682 1012 q 940 863 868 936 q 1049 698 1011 792 q 1088 502 1088 605 q 1050 306 1088 397 q 940 145 1012 215 q 771 32 865 72 q 577 -7 677 -7 q 384 31 476 -7 q 219 144 293 70 q 107 308 146 216 q 69 502 69 401 q 107 698 69 604 q 220 866 146 791 q 382 974 290 937 q 577 1012 473 1012 "},"L":{"x_min":-24,"x_max":590,"ha":643,"o":"m -24 0 l 198 1044 l 444 1044 l 266 205 l 590 205 l 547 0 l -24 0 "}," ":{"x_min":0,"x_max":0,"ha":372},"∑":{"x_min":40,"x_max":1040,"ha":1074,"o":"m 54 999 l 981 999 l 981 760 l 454 760 l 833 382 l 466 -25 l 1040 -25 l 1040 -266 l 40 -266 l 40 -130 l 490 369 l 54 796 l 54 999 "},"À":{"x_min":-98,"x_max":653,"ha":770,"o":"m 288 380 l 436 380 l 466 879 l 288 380 m -98 0 l 349 1044 l 644 1044 l 653 0 l 414 0 l 425 201 l 225 201 l 153 0 l -98 0 m 648 1132 l 555 1132 l 310 1325 l 503 1325 l 648 1132 "},"+":{"x_min":173,"x_max":985,"ha":1157,"o":"m 674 828 l 674 507 l 985 507 l 985 322 l 674 322 l 674 0 l 484 0 l 484 322 l 173 322 l 173 507 l 484 507 l 484 828 l 674 828 "},"½":{"x_min":86,"x_max":1153,"ha":1169,"o":"m 674 0 q 685 75 675 40 q 715 141 696 111 q 860 282 752 200 l 864 285 q 904 314 878 295 q 1006 444 1006 389 q 993 479 1006 467 q 955 492 980 492 q 914 468 929 492 q 897 394 900 444 l 758 394 q 816 540 764 492 q 963 589 867 589 q 1102 548 1051 589 q 1153 437 1153 508 q 1125 344 1153 386 q 1016 244 1098 303 q 992 227 1008 239 q 850 109 878 148 l 1090 109 l 1064 0 l 674 0 m 816 1051 l 931 1051 l 352 -19 l 237 -19 l 816 1051 m 119 454 l 214 856 q 169 849 191 851 q 124 847 147 847 q 100 847 108 847 q 86 848 92 847 l 105 929 q 225 955 177 931 q 304 1032 273 980 l 404 1032 l 266 454 l 119 454 "},"Ë":{"x_min":-24,"x_max":755,"ha":717,"o":"m -24 0 l 198 1044 l 755 1044 l 712 845 l 401 845 l 359 647 l 659 647 l 616 447 l 316 447 l 265 203 l 588 203 l 545 0 l -24 0 m 543 1139 l 580 1317 l 744 1317 l 706 1139 l 543 1139 m 303 1139 l 340 1317 l 504 1317 l 466 1139 l 303 1139 "},"'":{"x_min":46,"x_max":221,"ha":267,"o":"m 221 977 l 221 595 l 46 595 l 46 977 l 221 977 "},"Š":{"x_min":-10,"x_max":746,"ha":724,"o":"m -7 366 l 215 366 q 215 361 215 363 q 213 313 213 326 q 237 199 213 235 q 313 163 261 163 q 377 191 353 163 q 402 268 402 219 q 290 442 402 346 q 244 483 261 468 q 131 624 167 555 q 96 772 96 693 q 179 993 96 916 q 420 1071 263 1071 q 637 998 563 1071 q 711 785 711 926 q 710 747 711 761 q 707 723 709 734 l 498 723 l 498 741 q 477 857 498 822 q 407 893 456 893 q 348 868 369 893 q 327 802 327 844 q 349 724 327 760 q 444 624 371 688 l 453 617 q 634 298 634 458 q 549 58 634 140 q 300 -24 465 -24 q 67 58 145 -24 q -10 306 -10 141 q -7 361 -10 324 l -7 366 m 315 1325 l 401 1325 l 500 1226 l 647 1325 l 746 1325 l 572 1132 l 410 1132 l 315 1325 "},"˛":{"x_min":82,"x_max":322,"ha":694,"o":"m 281 0 q 221 -68 239 -37 q 204 -134 204 -99 q 216 -170 204 -158 q 254 -183 229 -183 l 322 -183 l 295 -310 l 271 -310 q 125 -279 168 -310 q 82 -179 82 -248 q 113 -87 82 -130 q 210 0 144 -44 l 281 0 "},"ð":{"x_min":0,"x_max":631,"ha":697,"o":"m 270 497 l 234 340 q 219 260 225 297 q 214 205 214 223 q 228 152 214 170 q 273 135 243 135 q 332 164 312 135 q 377 306 353 194 l 398 407 q 414 491 408 456 q 421 542 421 527 q 406 595 421 577 q 360 613 391 613 q 305 588 325 613 q 270 497 285 563 m 401 753 q 377 809 389 782 q 349 861 364 835 l 196 794 l 168 852 l 316 916 l 310 926 q 272 981 285 964 l 388 1069 q 428 1025 408 1048 q 467 975 448 1001 l 596 1030 l 624 972 l 503 919 q 600 724 569 817 q 631 536 631 631 q 626 450 631 493 q 611 366 621 408 q 575 225 593 286 q 543 136 557 164 q 436 15 500 51 q 262 -21 371 -21 q 67 37 135 -21 q 0 204 0 95 q 6 278 0 235 q 26 383 12 322 q 61 518 44 462 q 91 601 77 573 q 193 720 131 681 q 340 760 254 760 q 365 758 351 760 q 401 753 379 757 "},"ş":{"x_min":-26,"x_max":584,"ha":636,"o":"m -24 257 l 170 257 l 170 238 q 190 148 170 177 q 253 120 210 120 q 307 139 286 120 q 328 191 328 158 q 313 238 328 216 q 249 300 299 259 q 225 320 241 307 q 59 580 59 457 q 128 745 59 686 q 324 804 198 804 q 517 746 451 804 q 584 577 584 688 q 583 552 584 560 q 582 537 583 543 l 394 537 l 394 556 q 376 639 394 613 q 320 666 358 666 q 271 649 288 666 q 255 602 255 632 q 340 487 255 555 q 352 478 348 481 q 490 339 458 392 q 523 217 523 285 q 454 42 523 105 q 261 -20 385 -20 q 45 40 117 -20 q -26 223 -26 101 q -25 243 -26 236 q -24 257 -25 250 m 25 -292 l 58 -203 q 129 -226 94 -218 q 197 -234 165 -234 q 244 -221 227 -234 q 261 -185 261 -208 q 236 -152 261 -162 q 148 -142 211 -142 l 130 -142 l 178 0 l 254 0 l 233 -61 q 348 -89 309 -61 q 387 -174 387 -118 q 339 -285 387 -244 q 210 -326 292 -326 q 127 -317 173 -326 q 25 -292 81 -309 "},"ı":{"x_min":-31,"x_max":352,"ha":379,"o":"m -31 0 l 136 785 l 352 785 l 185 0 l -31 0 "},"Ć":{"x_min":25,"x_max":776,"ha":787,"o":"m 701 389 q 571 69 658 163 q 320 -25 484 -25 q 100 45 176 -25 q 25 250 25 115 q 30 317 25 275 q 47 427 35 360 q 104 698 75 588 q 165 879 133 809 q 287 1022 208 976 q 485 1069 365 1069 q 700 1001 624 1069 q 776 811 776 934 q 772 744 776 780 q 761 668 769 708 l 528 668 q 540 740 536 709 q 545 791 545 771 q 525 855 545 833 q 471 878 506 878 q 399 843 424 878 q 344 658 375 808 l 286 386 q 267 292 273 329 q 261 237 261 256 q 280 185 261 205 q 331 166 299 166 q 406 205 380 166 q 463 389 432 245 l 701 389 m 495 1132 l 409 1132 l 546 1325 l 726 1325 l 495 1132 "},"ä":{"x_min":-16,"x_max":651,"ha":715,"o":"m 393 381 q 313 341 365 360 q 244 310 261 321 q 211 271 223 298 q 200 210 200 245 q 216 155 200 174 q 266 137 233 137 q 330 167 307 137 q 370 281 353 198 l 393 381 m 342 64 q 259 1 306 23 q 159 -20 212 -20 q 30 31 76 -20 q -16 177 -16 83 q 29 348 -16 282 q 165 442 74 414 q 266 471 201 454 q 433 591 433 515 q 415 640 433 623 q 362 657 397 657 q 297 632 320 657 q 263 550 274 607 l 63 550 q 159 742 83 680 q 376 804 235 804 q 575 750 507 804 q 644 591 644 696 q 639 537 644 568 q 622 439 635 505 l 561 161 q 554 116 557 139 q 552 67 552 93 q 553 37 552 54 q 556 0 554 20 l 342 0 l 342 64 m 450 875 l 487 1053 l 651 1053 l 613 875 l 450 875 m 210 875 l 247 1053 l 411 1053 l 373 875 l 210 875 "},"¹":{"x_min":90,"x_max":424,"ha":492,"o":"m 124 412 l 225 842 q 179 835 202 837 q 132 833 156 833 q 113 833 122 833 q 90 835 103 834 l 111 922 q 237 950 186 924 q 319 1032 288 977 l 424 1032 l 279 412 l 124 412 "},"£":{"x_min":9.484375,"x_max":728,"ha":745,"o":"m 31 -16 l 9 151 q 118 260 78 193 q 158 399 158 327 q 156 417 158 408 q 151 437 154 426 l 10 437 l 35 554 l 144 554 q 128 646 133 604 q 124 723 124 687 q 204 966 124 883 q 439 1050 285 1050 q 650 979 572 1050 q 728 787 728 908 q 726 756 728 775 q 722 714 725 737 l 518 714 q 519 729 519 721 q 520 752 520 737 q 498 847 520 815 q 434 879 476 879 q 368 844 388 879 q 348 731 348 810 q 351 639 348 684 q 364 554 355 594 l 547 554 l 522 437 l 358 437 q 310 284 349 352 q 194 156 270 216 q 251 170 224 166 q 300 175 277 175 q 419 160 348 175 q 514 146 489 146 q 571 153 541 146 q 635 175 601 160 l 600 9 q 542 -13 572 -6 q 480 -21 513 -21 q 332 10 429 -21 q 187 41 235 41 q 113 26 151 41 q 31 -16 75 12 "},"W":{"x_min":115,"x_max":1176,"ha":1096,"o":"m 115 0 l 115 1044 l 342 1044 l 316 554 q 308 449 313 515 q 296 308 303 384 l 300 308 q 326 401 312 352 q 363 527 340 450 l 524 1044 l 753 1044 l 728 517 q 724 448 728 516 q 716 308 721 379 l 720 308 q 778 520 751 425 l 780 524 l 939 1044 l 1176 1044 l 788 0 l 528 0 l 556 458 q 557 480 557 465 q 573 641 562 583 l 566 641 q 542 547 555 593 q 512 445 529 500 l 373 0 l 115 0 "},"Ğ":{"x_min":26,"x_max":789,"ha":808,"o":"m 472 95 q 379 5 435 35 q 249 -25 324 -25 q 83 43 141 -25 q 26 241 26 112 q 31 320 26 273 q 47 427 36 366 q 103 695 73 583 q 166 881 133 808 q 288 1023 209 977 q 487 1069 366 1069 q 702 1000 628 1069 q 776 801 776 932 q 773 756 776 782 q 764 695 770 730 l 533 695 q 542 748 539 723 q 545 792 545 773 q 525 855 545 832 q 471 878 505 878 q 399 843 424 878 q 344 660 375 808 l 286 386 l 284 381 q 261 238 261 263 q 277 185 261 204 q 324 167 294 167 q 406 205 378 167 q 463 390 434 244 l 373 390 l 410 567 l 746 567 l 625 0 l 463 0 l 472 95 m 361 1326 l 450 1326 q 476 1262 451 1283 q 550 1241 501 1241 q 637 1261 601 1241 q 697 1326 673 1282 l 789 1326 q 696 1181 760 1230 q 538 1132 632 1132 q 405 1175 449 1132 q 361 1306 361 1219 l 361 1326 "},"v":{"x_min":56,"x_max":652,"ha":616,"o":"m 70 0 l 56 785 l 264 785 l 243 262 l 426 785 l 652 785 l 326 0 l 70 0 "},">":{"x_min":179,"x_max":978,"ha":1157,"o":"m 978 509 l 978 319 l 179 -11 l 179 191 l 722 413 l 179 635 l 179 840 l 978 509 "},"û":{"x_min":1,"x_max":691,"ha":715,"o":"m 345 76 q 254 5 299 27 q 160 -17 210 -17 q 42 25 84 -17 q 1 143 1 67 q 5 195 1 165 q 20 278 9 225 l 128 785 l 345 785 l 228 236 q 224 212 225 224 q 223 189 223 201 q 234 153 223 165 q 272 142 246 142 q 329 174 308 142 q 368 293 351 207 l 472 785 l 691 785 l 524 0 l 328 0 l 345 76 m 637 868 l 550 868 l 450 966 l 303 868 l 205 868 l 379 1061 l 540 1061 l 637 868 "},"Ð":{"x_min":-16,"x_max":804,"ha":835,"o":"m 259 187 l 327 187 q 436 228 400 187 q 507 412 473 270 l 562 649 q 574 713 570 682 q 579 768 579 744 q 555 834 579 812 q 486 857 532 857 l 404 857 l 356 636 l 467 636 l 431 461 l 317 461 l 259 187 m 511 1044 q 731 978 659 1044 q 804 777 804 912 q 799 707 804 749 q 785 612 794 666 q 734 359 761 467 q 674 180 706 250 q 559 45 633 90 q 380 0 486 0 l -16 0 l 82 461 l -9 461 l 27 636 l 119 636 l 206 1044 l 511 1044 "},"r":{"x_min":-31,"x_max":519,"ha":478,"o":"m -31 0 l 136 785 l 327 785 l 295 635 q 384 766 334 725 q 504 807 434 807 l 519 807 l 467 564 l 420 564 q 323 529 355 564 q 264 368 292 495 l 185 0 l -31 0 "},"Č":{"x_min":25,"x_max":776,"ha":787,"o":"m 701 389 q 571 69 658 163 q 320 -25 484 -25 q 100 45 176 -25 q 25 250 25 115 q 30 317 25 275 q 47 427 35 360 q 104 698 75 588 q 165 879 133 809 q 287 1022 208 976 q 485 1069 365 1069 q 700 1001 624 1069 q 776 811 776 934 q 772 744 776 780 q 761 668 769 708 l 528 668 q 540 740 536 709 q 545 791 545 771 q 525 855 545 833 q 471 878 506 878 q 399 843 424 878 q 344 658 375 808 l 286 386 q 267 292 273 329 q 261 237 261 256 q 280 185 261 205 q 331 166 299 166 q 406 205 380 166 q 463 389 432 245 l 701 389 m 335 1325 l 421 1325 l 520 1226 l 667 1325 l 766 1325 l 592 1132 l 430 1132 l 335 1325 "},"x":{"x_min":-109,"x_max":626,"ha":586,"o":"m -109 0 l 151 419 l 51 785 l 250 785 l 281 583 l 389 785 l 626 785 l 366 393 l 483 0 l 279 0 l 235 221 l 124 0 l -109 0 "},"è":{"x_min":7,"x_max":647,"ha":707,"o":"m 590 267 q 486 47 563 116 q 269 -21 410 -21 q 74 36 142 -21 q 7 202 7 94 q 14 290 7 236 q 38 419 22 344 q 74 560 57 503 q 105 647 91 618 q 213 769 148 732 q 385 806 277 806 q 580 746 514 806 q 647 572 647 686 q 638 487 647 540 q 613 361 630 434 l 242 361 l 227 294 q 218 244 221 268 q 215 203 215 221 q 231 148 215 166 q 282 131 248 131 q 347 162 323 131 q 382 267 370 194 l 590 267 m 272 493 l 437 493 q 446 547 443 524 q 450 584 450 570 q 432 645 450 625 q 381 666 414 666 q 315 631 338 666 q 272 493 292 597 m 538 868 l 445 868 l 200 1061 l 393 1061 l 538 868 "},"Ø":{"x_min":-9.5,"x_max":808.15625,"ha":806,"o":"m 525 641 l 251 208 q 280 176 261 187 q 326 166 299 166 q 406 200 379 166 q 467 386 433 234 l 525 641 m 277 403 l 552 835 q 522 869 541 858 q 475 880 503 880 q 398 845 425 880 q 337 659 371 810 l 277 403 m -9 -10 l 60 95 q 34 164 42 127 q 26 241 26 200 q 31 324 26 276 q 47 428 36 372 q 105 705 77 600 q 166 881 133 811 q 287 1022 209 975 q 483 1069 366 1069 q 582 1059 537 1069 q 663 1029 626 1049 l 715 1107 l 808 1046 l 744 948 q 770 882 762 918 q 779 801 779 846 q 773 718 779 764 q 757 616 768 673 q 698 341 727 449 q 638 162 670 233 q 517 21 595 67 q 323 -25 439 -25 q 216 -14 263 -25 q 141 17 169 -3 l 84 -71 l -9 -10 "},"÷":{"x_min":172,"x_max":983,"ha":1157,"o":"m 578 251 q 664 214 628 251 q 701 127 701 177 q 664 40 701 77 q 576 4 628 4 q 489 39 525 4 q 454 127 454 75 q 490 215 454 179 q 578 251 526 251 m 983 507 l 983 322 l 172 322 l 172 507 l 983 507 m 578 825 q 664 787 628 825 q 701 700 701 750 q 664 614 701 650 q 576 578 628 578 q 489 613 525 578 q 454 700 454 649 q 490 788 454 752 q 578 825 526 825 "},"h":{"x_min":-31,"x_max":658,"ha":718,"o":"m -31 0 l 190 1044 l 408 1044 l 340 729 q 412 783 371 765 q 508 802 454 802 q 616 759 575 802 q 658 647 658 716 q 653 583 658 620 q 639 507 648 546 l 531 0 l 315 0 l 431 548 q 434 567 433 558 q 436 594 436 577 q 424 631 436 619 q 387 643 412 643 q 330 610 352 643 q 290 491 309 578 l 185 0 l -31 0 "},".":{"x_min":-49,"x_max":244,"ha":374,"o":"m -49 0 l 1 237 l 244 237 l 194 0 l -49 0 "},"f":{"x_min":-14,"x_max":523,"ha":433,"o":"m -14 0 l 121 642 l 35 642 l 66 785 l 152 785 l 161 825 q 244 1001 187 951 q 415 1051 301 1051 q 462 1049 436 1051 q 523 1044 488 1047 l 491 898 q 477 900 485 899 q 457 901 470 901 q 401 876 420 901 q 371 785 383 852 l 467 785 l 436 642 l 341 642 l 205 0 l -14 0 "},"“":{"x_min":100,"x_max":722,"ha":688,"o":"m 569 858 l 683 858 l 638 642 l 416 642 l 460 849 q 544 1015 484 965 q 722 1069 603 1064 l 705 992 q 611 956 643 987 q 569 858 580 925 m 254 858 l 367 858 l 322 642 l 100 642 l 144 849 q 228 1015 169 965 q 406 1069 287 1064 l 390 992 q 297 956 328 987 q 254 858 266 925 "},"A":{"x_min":-98,"x_max":653,"ha":770,"o":"m 288 380 l 436 380 l 466 879 l 288 380 m -98 0 l 349 1044 l 644 1044 l 653 0 l 414 0 l 425 201 l 225 201 l 153 0 l -98 0 "},"O":{"x_min":26,"x_max":779,"ha":806,"o":"m 344 659 l 286 385 q 267 292 273 329 q 261 237 261 256 q 280 185 261 205 q 331 166 299 166 q 404 202 378 166 q 460 385 429 238 l 518 658 q 537 751 531 714 q 544 806 544 787 q 524 858 544 838 q 471 878 504 878 q 400 843 424 878 q 344 659 375 808 m 26 245 q 31 323 26 276 q 47 427 36 370 q 104 702 76 598 q 170 890 132 807 q 290 1024 211 979 q 485 1069 369 1069 q 703 998 628 1069 q 779 793 779 928 q 773 721 779 766 q 757 616 768 676 q 700 348 730 460 q 638 164 671 236 q 516 21 595 67 q 319 -25 438 -25 q 101 44 176 -25 q 26 245 26 114 "},"π":{"x_min":28,"x_max":1154,"ha":1164,"o":"m 1126 574 l 1004 574 l 923 0 l 640 0 l 720 574 l 566 574 l 486 0 l 202 0 l 283 574 l 263 574 q 224 548 242 574 q 202 484 207 523 l 28 484 q 114 683 52 630 q 326 737 176 737 l 1154 737 l 1126 574 "},"‘":{"x_min":100,"x_max":406,"ha":374,"o":"m 254 858 l 367 858 l 322 642 l 100 642 l 144 849 q 228 1015 169 965 q 406 1069 287 1064 l 390 992 q 297 956 328 987 q 254 858 266 925 "},"3":{"x_min":8,"x_max":707,"ha":745,"o":"m 14 344 l 232 344 q 226 302 228 322 q 224 261 224 281 q 239 185 224 208 q 291 162 255 162 q 367 209 340 162 q 395 342 395 256 q 364 442 395 414 q 255 471 333 471 l 248 471 l 284 640 q 309 638 301 639 q 324 638 318 638 q 445 679 406 638 q 485 804 485 720 q 468 862 485 841 q 422 884 451 884 q 358 852 382 884 q 328 761 334 821 l 112 761 q 207 978 127 906 q 431 1050 287 1050 q 637 985 567 1050 q 707 796 707 921 q 657 621 707 689 q 511 526 608 553 q 599 440 571 490 q 628 318 628 389 q 539 70 628 159 q 291 -18 450 -18 q 80 55 153 -18 q 8 268 8 129 q 9 296 8 280 q 14 344 10 311 "},"9":{"x_min":11,"x_max":714,"ha":745,"o":"m 369 505 q 412 520 394 505 q 442 568 430 536 q 477 687 464 625 q 490 794 490 748 q 475 856 490 837 q 429 875 461 875 q 388 860 406 875 q 358 820 369 846 q 322 704 336 769 q 309 588 309 640 q 323 525 309 546 q 369 505 338 505 m 413 391 q 355 363 385 372 q 292 354 326 354 q 136 419 191 354 q 82 606 82 484 q 109 797 82 705 q 185 948 137 888 q 289 1024 225 998 q 435 1051 353 1051 q 644 986 574 1051 q 714 794 714 922 q 685 589 714 739 l 683 576 q 631 331 655 433 q 594 195 607 229 q 480 30 550 78 q 282 -17 410 -17 q 80 40 149 -17 q 11 209 11 98 q 13 253 11 223 q 13 257 13 255 l 227 257 q 227 245 227 251 q 227 226 227 238 q 242 169 227 187 q 291 151 258 151 q 356 189 333 151 q 413 391 379 228 "},"l":{"x_min":-31,"x_max":408,"ha":379,"o":"m -31 0 l 190 1044 l 408 1044 l 185 0 l -31 0 "},"":{"x_min":-14,"x_max":822,"ha":790,"o":"m 383 0 l 550 785 l 763 785 l 597 0 l 383 0 m 571 881 l 609 1061 l 822 1061 l 784 881 l 571 881 m -14 0 l 122 642 l 34 642 l 65 785 l 151 785 l 161 825 q 244 1001 187 951 q 415 1051 301 1051 q 461 1049 436 1051 q 522 1044 487 1047 l 489 898 q 476 900 484 899 q 457 901 469 901 q 400 876 419 901 q 370 785 382 852 l 466 785 l 437 642 l 340 642 l 204 0 l -14 0 "},"4":{"x_min":-39,"x_max":716,"ha":745,"o":"m 354 369 l 459 772 l 178 369 l 354 369 m 268 0 l 312 201 l -39 201 l 3 405 l 477 1032 l 716 1032 l 575 369 l 668 369 l 632 201 l 539 201 l 496 0 l 268 0 "},"Ü":{"x_min":35,"x_max":853,"ha":827,"o":"m 194 1044 l 438 1044 l 295 365 q 277 276 283 309 q 272 227 272 243 q 289 179 272 196 q 339 162 307 162 q 463 363 420 162 l 466 379 l 608 1044 l 853 1044 l 707 357 q 658 171 679 228 q 610 80 637 113 q 502 0 564 26 q 357 -25 441 -25 q 115 37 195 -25 q 35 226 35 99 q 43 315 35 258 q 70 460 52 373 l 194 1044 m 581 1139 l 618 1317 l 782 1317 l 744 1139 l 581 1139 m 341 1139 l 378 1317 l 542 1317 l 504 1139 l 341 1139 "},"à":{"x_min":-16,"x_max":644,"ha":715,"o":"m 393 381 q 313 341 365 360 q 244 310 261 321 q 211 271 223 298 q 200 210 200 245 q 216 155 200 174 q 266 137 233 137 q 330 167 307 137 q 370 281 353 198 l 393 381 m 342 64 q 259 1 306 23 q 159 -20 212 -20 q 30 31 76 -20 q -16 177 -16 83 q 29 348 -16 282 q 165 442 74 414 q 266 471 201 454 q 433 591 433 515 q 415 640 433 623 q 362 657 397 657 q 297 632 320 657 q 263 550 274 607 l 63 550 q 159 742 83 680 q 376 804 235 804 q 575 750 507 804 q 644 591 644 696 q 639 537 644 568 q 622 439 635 505 l 561 161 q 554 116 557 139 q 552 67 552 93 q 553 37 552 54 q 556 0 554 20 l 342 0 l 342 64 m 542 868 l 449 868 l 204 1061 l 397 1061 l 542 868 "},"ó":{"x_min":0,"x_max":641,"ha":697,"o":"m 265 481 l 235 340 q 219 258 224 294 q 214 205 214 223 q 228 152 214 170 q 273 135 243 135 q 333 163 312 135 q 377 305 353 192 l 406 445 q 423 530 417 496 q 429 580 429 565 q 414 634 429 616 q 369 652 399 652 q 309 622 330 652 q 265 481 289 593 m 0 201 q 8 296 0 239 q 31 425 16 353 q 65 559 47 500 q 98 647 83 618 q 205 769 141 732 q 378 806 269 806 q 573 747 505 806 q 641 582 641 689 q 633 490 641 545 q 610 365 625 436 q 574 222 591 280 q 543 136 558 165 q 437 15 502 51 q 262 -21 372 -21 q 68 36 136 -21 q 0 201 0 94 m 396 868 l 310 868 l 447 1061 l 627 1061 l 396 868 "}}}
